<svg width="32" height="32" fill="none" xmlns="http://www.w3.org/2000/svg"><path d="M16 31.667c-.733 0-1.333-.6-1.333-1.334V1.667c0-.734.6-1.334 1.333-1.334.734 0 1.334.6 1.334 1.334V30.4c0 .667-.6 1.267-1.334 1.267z" fill="#000"/><path d="M30.334 31.666c-.534 0-1-.333-1.2-.8-1-.533-5.467-1.466-13.134-1.466-7.666 0-12.2.933-13.133 1.466-.2.467-.667.8-1.2.8-.734 0-1.334-.6-1.334-1.333 0-1.466 1.534-2.333 5.334-2.933 2.8-.467 6.466-.667 10.333-.667 3.933 0 7.6.267 10.334.667 3.8.6 5.333 1.466 5.333 2.933 0 .734-.6 1.334-1.334 1.334zM26.933 9.8H5.067c-.734 0-1.334-.6-1.334-1.333V3.933c0-.733.6-1.333 1.334-1.333.733 0 1.333.6 1.333 1.333V7.2h19.333V3.933c0-.733.6-1.333 1.334-1.333.733 0 1.333.6 1.333 1.333v4.6c-.133.667-.733 1.267-1.467 1.267z" fill="#000"/><path d="M5 5.733c-1.266 0-2.333-1.066-2.333-2.4a2.39 2.39 0 012.4-2.4 2.39 2.39 0 012.4 2.4c0 1.334-1.133 2.4-2.467 2.4zm0-2.6c-.133 0-.266.067-.266.2 0 .134.133.267.266.267a.287.287 0 00.267-.267c0-.133-.133-.2-.267-.2zm21.934 3.134a2.39 2.39 0 01-2.4-2.4 2.39 2.39 0 012.4-2.4 2.39 2.39 0 012.4 2.4 2.39 2.39 0 01-2.4 2.4zm0-2.6a.287.287 0 00-.267.266c0 .134.133.267.267.267a.287.287 0 00.266-.267c0-.133-.066-.266-.266-.266zm-.001 17.2H5.067c-.734 0-1.334-.6-1.334-1.334v-4.6c0-.733.6-1.333 1.334-1.333.733 0 1.333.6 1.333 1.333V18.2h19.333v-3.267c0-.733.6-1.333 1.334-1.333.733 0 1.333.6 1.333 1.333v4.6c-.133.8-.733 1.334-1.467 1.334z" fill="#000"/><path d="M5 16.8a2.39 2.39 0 01-2.4-2.4A2.39 2.39 0 015 12a2.39 2.39 0 012.4 2.4A2.39 2.39 0 015 16.8zm0-2.6a.287.287 0 00-.267.267c0 .133.134.2.267.2a.287.287 0 00.267-.267c0-.133-.134-.2-.267-.2zm21.934 3.2a2.39 2.39 0 01-2.4-2.4 2.39 2.39 0 012.4-2.4 2.39 2.39 0 012.4 2.4 2.39 2.39 0 01-2.4 2.4zm0-2.6a.287.287 0 00-.267.267c0 .133.133.266.267.266a.287.287 0 00.266-.266c0-.2-.066-.267-.266-.267z" fill="#000"/></svg>