<svg width="36" height="25" fill="none" xmlns="http://www.w3.org/2000/svg"><g clip-path="url(#clip0)" fill="#000"><path d="M12.1 16.838H3.985c-.737 0-1.328-.515-1.401-1.25L.369 1.912C.221 1.102.812.368 1.549.294a1.44 1.44 0 011.698 1.177l1.918 12.5h6.936c.811 0 1.475.661 1.475 1.47 0 .809-.664 1.397-1.475 1.397z"/><path d="M11.068 24.78c-.738 0-1.328-.515-1.402-1.25l-.738-6.618h-3.69l-.737 6.617c-.074.736-.812 1.324-1.623 1.177-.812-.074-1.329-.809-1.255-1.618l.886-7.941c.073-.735.737-1.25 1.402-1.25h6.197c.738 0 1.329.515 1.402 1.25l1.033 8.015c.074.809-.516 1.47-1.254 1.617h-.221zm20.364-7.942h-8.116a1.477 1.477 0 01-1.476-1.47c0-.81.664-1.47 1.476-1.47h6.936l1.992-12.5c.148-.81.885-1.324 1.623-1.177.812.147 1.328.882 1.18 1.617l-2.139 13.677c-.148.808-.738 1.323-1.476 1.323z"/><path d="M32.391 24.78c-.737 0-1.328-.515-1.401-1.25l-.738-6.618h-3.69l-.738 6.617c-.073.81-.811 1.324-1.623 1.25-.811-.073-1.328-.808-1.254-1.617l.885-7.941c.074-.736.738-1.25 1.402-1.25h6.198c.738 0 1.328.514 1.402 1.25l.885 7.94c.074.81-.516 1.471-1.254 1.618h-.074zm-14.682 0a1.478 1.478 0 01-1.476-1.471V6.69a1.477 1.477 0 012.951 0v16.62c0 .808-.664 1.47-1.475 1.47z"/><path d="M24.275 7.647H11.142a1.477 1.477 0 01-1.476-1.47c0-.81.664-1.471 1.476-1.471h13.06c.811 0 1.475.662 1.475 1.47 0 .81-.664 1.471-1.402 1.471z"/></g><defs><clipPath id="clip0"><path fill="#fff" d="M0 0h35.417v25H0z"/></clipPath></defs></svg>