<svg width="70" height="70" xmlns="http://www.w3.org/2000/svg"><circle cx="35" cy="35" r="35" fill="#F18700"/><path d="M48.969 24.438h-4.285C44.123 19.692 40.08 16 35.188 16c-4.893 0-8.938 3.693-9.497 8.438h-4.285c-.776 0-1.406.63-1.406 1.406v24.75c0 .776.63 1.406 1.406 1.406H48.97c.776 0 1.406-.63 1.406-1.406v-24.75c0-.777-.63-1.407-1.406-1.407zm-13.782-5.625c3.34 0 6.119 2.436 6.656 5.625H28.532c.537-3.189 3.317-5.625 6.655-5.625zm12.376 30.375h-24.75V27.25h2.812v4.219a1.406 1.406 0 002.813 0V27.25h13.5v4.219a1.406 1.406 0 002.812 0V27.25h2.813v21.938z"/></svg>