<svg width="32" height="32" fill="none" xmlns="http://www.w3.org/2000/svg"><path d="M26.79 19.023H5.093c-.868 0-1.578-.611-1.578-1.358 0-.748.71-1.36 1.578-1.36H26.79c.868 0 1.578.612 1.578 1.36 0 .747-.71 1.358-1.578 1.358z" fill="#000"/><path d="M4.935 32c-.868 0-1.578-.611-1.578-1.359V17.936L.122 11.414c-.315-.68 0-1.427.71-1.699l5.839-2.513c.789-.34 1.657-.068 2.051.611.395.68.08 1.427-.71 1.767l-4.497 1.97 2.761 5.639c.08.136.158.34.158.543V30.71c.08.68-.631 1.291-1.499 1.291zm21.935 0c-.869 0-1.579-.612-1.579-1.359V17.664c0-.204.08-.34.158-.543l2.762-5.64-4.498-1.97c-.789-.34-1.104-1.155-.71-1.766.395-.68 1.342-.951 2.052-.611l5.838 2.513c.71.34 1.026 1.087.71 1.699l-3.235 6.522v12.705c0 .815-.63 1.427-1.499 1.427z" fill="#000"/><path d="M26.71 25.206H4.936c-.868 0-1.578-.612-1.578-1.359s.71-1.359 1.578-1.359h21.697c.868 0 1.578.612 1.578 1.36 0 .746-.71 1.358-1.5 1.358zm-2.445-6.183H7.538c-.868 0-1.578-.611-1.578-1.358V1.358C5.96.61 6.67 0 7.538 0h16.727c.867 0 1.577.611 1.577 1.359v16.305c0 .748-.71 1.36-1.577 1.36zm-15.228-2.65h13.65V2.719H9.036v13.656z" fill="#000"/></svg>