<svg width="21" height="32" fill="none" xmlns="http://www.w3.org/2000/svg"><path d="M19.336 23.08H1.362A1.366 1.366 0 010 21.72v-2.588a3.371 3.371 0 013.404-3.404h13.89a3.371 3.371 0 013.404 3.404v2.587c0 .75-.613 1.362-1.362 1.362zm-16.68-2.722h15.386v-1.294a.756.756 0 00-.748-.749H3.404a.756.756 0 00-.749.749v1.294z" fill="#000"/><path d="M1.362 32A1.366 1.366 0 010 30.638V21.72c0-.749.613-1.362 1.362-1.362.749 0 1.361.613 1.361 1.362v8.92c-.068.748-.68 1.36-1.361 1.36zm17.974 0a1.366 1.366 0 01-1.362-1.362V21.72c0-.749.613-1.362 1.362-1.362.749 0 1.362.613 1.362 1.362v8.92c0 .748-.613 1.36-1.362 1.36zm-2.111-13.617H3.268c-.409 0-.749-.136-1.021-.477-.273-.272-.34-.68-.34-1.021l1.7-15.728C3.676.477 4.221 0 4.902 0h10.485c.68 0 1.226.545 1.294 1.157l1.838 15.524c0 .136.068.204.068.34-.068.75-.613 1.362-1.362 1.362zm-12.46-2.655h10.962l-1.43-13.073h-8.1l-1.43 13.073z" fill="#000"/></svg>