<svg width="34" height="32" fill="none" xmlns="http://www.w3.org/2000/svg"><path d="M31.44 25.363H1.398A1.401 1.401 0 010 23.965V16.42c0-.769.629-1.398 1.397-1.398h30.114c.768 0 1.397.629 1.397 1.398v7.615a1.451 1.451 0 01-1.467 1.328zM2.726 22.638h27.388v-4.89H2.725v4.89z" fill="#000"/><path d="M31.44 32a1.401 1.401 0 01-1.396-1.397v-6.568a1.4 1.4 0 011.397-1.397 1.4 1.4 0 011.397 1.397v6.568c0 .768-.629 1.397-1.397 1.397zM1.397 32A1.401 1.401 0 010 30.603v-6.568c0-.768.629-1.397 1.397-1.397.769 0 1.398.628 1.398 1.397v6.568C2.725 31.37 2.096 32 1.397 32zM16.42 17.747c-4.892 0-8.944-3.913-8.944-8.734 0-.768.629-1.397 1.397-1.397h15.092a1.4 1.4 0 011.397 1.397c0 4.821-4.052 8.734-8.943 8.734zm-6.01-7.336c.63 2.655 3.075 4.611 6.01 4.611 2.934 0 5.38-1.956 6.008-4.611H10.411zm4.891-7.406l-.838 1.118 1.397-.21v.629l-1.397-.14.908 1.048-.559.35-.559-1.258-.559 1.257-.489-.349.839-1.048-1.328.14v-.63l1.188.21-.838-1.117.559-.35.559 1.258.559-1.258.558.35z" fill="#000"/><path d="M13.694 6.289l-1.188-.769.63-.699-.909.07V3.564l.908.07-.628-.769 1.257-.629.42.839.419-.909 1.187.699-.628.768.978-.07v1.328l-.909-.07.56.699-1.258.699-.42-.909-.419.979zm5.101-1.887l-.56.699.909-.14v.42l-.908-.07.559.698-.35.21-.35-.839-.418.839-.35-.21.56-.699-.909.14v-.42l.838.14-.558-.698.349-.21.35.769.348-.839.49.21z" fill="#000"/><path d="M17.817 6.707l-.979-.559.28-.349h-.42V4.681h.42l-.28-.35 1.049-.558.21.42.209-.42 1.048.559-.35.35h.49v1.117h-.42l.28.35-1.048.558-.21-.489-.28.49zm-.28-6.008l-.559.698.909-.07v.42l-.909-.07.56.698-.35.21-.35-.838-.419.768-.349-.21.559-.698-.908.14v-.42l.838.14L16 .768l.35-.21.489.77.349-.839.35.21z" fill="#000"/><path d="M16.559 3.004l-.978-.628.28-.35-.42.07V.908l.42.07-.28-.35L16.629 0l.21.49.209-.49 1.048.629-.35.35.49-.07v1.187l-.42-.07.28.42-1.048.558-.21-.489-.28.49z" fill="#000"/></svg>