<svg width="50" height="50" fill="none" xmlns="http://www.w3.org/2000/svg"><path d="M1 25C1 11.745 11.745 1 25 1s24 10.745 24 24-10.745 24-24 24S1 38.255 1 25z" fill="#fff"/><path d="M25 18.621c1.953 0 3.27.844 4.021 1.549l2.936-2.866C30.154 15.628 27.808 14.6 25 14.6c-4.067 0-7.58 2.334-9.29 5.731l3.362 2.612c.844-2.508 3.178-4.322 5.928-4.322z" fill="#EA4335"/><path d="M34.984 25.231c0-.855-.07-1.479-.22-2.126H25v3.86h5.732c-.116.959-.74 2.403-2.127 3.374l3.282 2.542c1.965-1.814 3.097-4.484 3.097-7.65z" fill="#4285F4"/><path d="M19.084 27.057A6.401 6.401 0 0118.737 25c0-.716.127-1.41.335-2.057l-3.363-2.612A10.41 10.41 0 0014.6 25c0 1.675.405 3.259 1.11 4.668l3.374-2.611z" fill="#FBBC05"/><path d="M25 35.4c2.808 0 5.165-.924 6.887-2.52l-3.282-2.541c-.878.612-2.057 1.04-3.605 1.04-2.75 0-5.085-1.815-5.917-4.322l-3.362 2.611C17.43 33.066 20.932 35.4 25 35.4z" fill="#34A853"/><rect x=".5" y=".5" width="49" height="49" rx="24.5" stroke="#DADADA"/></svg>