<svg width="25" height="32" fill="none" xmlns="http://www.w3.org/2000/svg"><path d="M23.106 15.523H1.32c-.408 0-.817-.204-1.09-.544-.203-.34-.272-.817-.203-1.226l3.88-12.8C4.043.41 4.587 0 5.2 0h14.026c.612 0 1.089.409 1.293.953l3.813 12.664c.068.204.136.34.136.545-.068.749-.613 1.361-1.362 1.361zM3.157 12.8h18.18L18.203 2.655H6.221L3.157 12.8z" fill="#000"/><path d="M12.213 22.808c-4.426 0-8.102-3.608-8.102-8.102 0-.749.613-1.361 1.362-1.361.748 0 1.361.612 1.361 1.361 0 2.996 2.451 5.379 5.379 5.379 2.928 0 5.379-2.451 5.379-5.379 0-.749.612-1.361 1.361-1.361.75 0 1.362.612 1.362 1.361-.068 4.494-3.677 8.102-8.102 8.102zm0 9.192a1.366 1.366 0 01-1.362-1.362v-3.676c0-.75.613-1.362 1.362-1.362.749 0 1.362.613 1.362 1.362v3.676c-.069.75-.613 1.362-1.362 1.362zm7.285-1.974c-.476 0-1.021-.273-1.225-.817l-1.498-3.337c-.273-.68 0-1.43.68-1.77.682-.272 1.43 0 1.77.681l1.499 3.336c.272.681 0 1.43-.681 1.77-.204.137-.409.137-.545.137zm-14.57 0c-.205 0-.34-.069-.545-.137-.681-.272-.953-1.089-.681-1.77L5.2 24.783c.272-.68 1.09-.953 1.77-.68.681.271.953 1.088.681 1.77l-1.498 3.335c-.204.545-.68.818-1.225.818z" fill="#000"/></svg>