<svg width="32" height="30" fill="none" xmlns="http://www.w3.org/2000/svg"><path d="M16 6.477L14.977 5.02a9.21 9.21 0 00-1.789-1.926h0C11.913 2.08 10.494 1.581 8.94 1.581c-2.114 0-4.049.866-5.47 2.452L16 6.477zm0 0l1.023-1.456M16 6.477l1.023-1.456m0 0a9.213 9.213 0 011.788-1.926l-1.788 1.926zm-5.08 19.972h0l.005.004a389.58 389.58 0 013.651 3.233l.001.001a.596.596 0 00.4.157.596.596 0 00.4-.157h0a374.198 374.198 0 013.63-3.214l.028-.025h0c3.25-2.852 5.94-5.216 7.795-7.52h0c2.03-2.522 2.897-4.804 2.897-7.242 0-2.433-.81-4.623-2.22-6.197l-16.587 20.96zm0 0c-3.251-2.852-5.941-5.217-7.795-7.52m7.795 7.52l-7.795-7.52m0 0C2.118 14.95 1.25 12.667 1.25 10.23c0-2.434.81-4.624 2.22-6.198l.678 13.44zM23.06 1.58c2.114 0 4.049.866 5.47 2.452l-9.72-.938c1.276-1.015 2.695-1.514 4.25-1.514z" stroke="#000" stroke-width="2.5"/></svg>