<svg width="32" height="32" fill="none" xmlns="http://www.w3.org/2000/svg"><g clip-path="url(#clip10)" stroke="#000" stroke-width="2.5"><path d="M20.338 12.273h0c1.264-1.264 1.892-2.78 1.892-4.566 0-1.785-.628-3.3-1.892-4.565 0 0 0 0 0 0m0 9.13v-9.13m0 9.13c-1.264 1.265-2.78 1.893-4.566 1.893-1.785 0-3.301-.628-4.565-1.892m9.13 0h-9.13m9.13-9.132c-1.264-1.263-2.78-1.891-4.565-1.891-1.786 0-3.302.628-4.566 1.892-1.264 1.264-1.892 2.78-1.892 4.565 0 1.786.628 3.302 1.893 4.566m9.13-9.132l-9.13 9.132m16.804 12.421v-.001c-.04-.572-.12-1.206-.243-1.888l.243 1.889zm0 0c.04.579.062 1.185.062 1.803l-.062-1.803zm-.7-3.761h0a8.786 8.786 0 00-.732-1.66l1.087-.617-1.087.617a5.909 5.909 0 00-1.037-1.356h0a4.307 4.307 0 00-1.407-.879l3.176 3.895zm0 0c.181.566.336 1.196.457 1.872l-.457-1.872zm-5.598-3.897c-.379.248-.821.533-1.313.847l-.002.001c-.54.345-1.217.634-1.976.88a7.955 7.955 0 01-2.449.394 7.963 7.963 0 01-2.45-.395l8.19-1.727zm0 0c.288-.187.446-.272.54-.311a.52.52 0 01.045-.018 5.02 5.02 0 011.837.331l-2.422-.002zm-10.165.848h0c-.489-.312-.931-.597-1.316-.848h0a3.85 3.85 0 00-.538-.311.51.51 0 00-.046-.018 4.99 4.99 0 00-1.836.331h0a4.305 4.305 0 00-1.407.878l5.143-.032zm0 0c.54.345 1.217.634 1.975.88l-1.975-.88zm-6.18 1.389h0a8.813 8.813 0 00-.732 1.66l.732-1.66zm0 0c.307-.54.658-.994 1.037-1.356l-1.037 1.356zm-1.432 5.42h0c-.04.583-.061 1.19-.061 1.804 0 1.386.43 2.39 1.19 3.114l-1.129-4.918zm0 0c.04-.573.12-1.208.243-1.888l-.243 1.888zm22.947 4.918h0c.76-.723 1.19-1.727 1.19-3.114l-1.19 3.114zm0 0c-.764.727-1.805 1.14-3.205 1.14H8.27c-1.4 0-2.441-.413-3.205-1.14h21.818zm-4.577-12.906h-.003.003zm-12.666 0h.003-.003zm-5.461 6.1a14.72 14.72 0 01.457-1.872l-.457 1.872zm25.144 3.692c0-.645-.022-1.281-.065-1.89l.065 1.89z"/></g><defs><clipPath id="clip10"><path fill="#fff" d="M0 0h32v32H0z"/></clipPath></defs></svg>