<svg width="41" height="72" fill="none" xmlns="http://www.w3.org/2000/svg"><path d="M10.68 21.318a2.63 2.63 0 002.038 1.851l12.348 2.09c.15.03.3.03.45.03a2.57 2.57 0 002.217-1.283c.45-.807.45-1.762 0-2.569l-3.446-5.884.36-2.06a3.834 3.834 0 00-2.308-4.181l.03-.15c.57-3.972 4.136-6.84 8.152-6.54 4.016.298 7.133 3.613 7.133 7.615V67.76c0 .717.569 1.284 1.288 1.284.72 0 1.289-.567 1.289-1.284V10.357c0-5.406-4.166-9.975-9.56-10.334-5.335-.358-10.07 3.465-10.82 8.751l-.06.388a3.895 3.895 0 00-2.727 3.046l-.36 2.061-5.185 4.45a2.467 2.467 0 00-.839 2.599zm11.42-8.273l-.21 1.254-2.547-.418.21-1.254c.12-.628.629-1.075 1.258-1.075.06 0 .15 0 .21.03.72.089 1.199.746 1.079 1.463zm-8.961 7.586l5.095-4.33 3.896.656 3.387 5.764-12.378-2.09z" fill="#020203"/><path d="M17.723 72c9.418 0 17.053-1.337 17.053-2.987 0-1.649-7.635-2.986-17.053-2.986C8.305 66.027.67 67.364.67 69.013.67 70.663 8.305 72 17.723 72z" fill="#F18700"/><path d="M30.79 49.033c-.36 0-.69.03-.989.12l.69-7.706c.239-2.777-1.769-5.286-4.556-5.674-2.278-.329-5.575-.717-8.272-.717-2.667 0-5.904.388-8.152.717-2.757.418-4.765 2.897-4.526 5.674l.69 7.706c-.33-.09-.66-.12-.99-.12A3.977 3.977 0 00.7 53.005c0 5.555 3.536 9.199 5.125 10.573l-1.08 3.733c-.21.717.21 1.434.9 1.643.12.03.24.06.36.06.569 0 1.108-.389 1.288-.956l1.05-3.614h18.79l1.05 3.614c.18.567.689.955 1.288.955.12 0 .24-.03.36-.06a1.302 1.302 0 00.9-1.642l-1.32-4.57c-.18-.597-.719-.985-1.318-.955H7.803a13.474 13.474 0 01-2.128-2.18c-1.559-2.031-2.338-4.241-2.338-6.57 0-.748.6-1.315 1.319-1.315.72 0 1.319.597 1.319 1.314v.15l.09.776c.03.836.419 1.613 1.048 2.15.69.568 1.559.777 2.428.628 3.177-.598 5.934-.896 8.152-.896 2.218 0 4.945.298 8.152.895.869.15 1.738-.06 2.428-.627.659-.537 1.048-1.314 1.048-2.15l.09-.776v-.15c0-.746.6-1.314 1.32-1.314.748 0 1.318.597 1.318 1.314 0 1.613-.39 3.226-1.14 4.719a1.338 1.338 0 00.6 1.792c.66.328 1.469.06 1.798-.597.96-1.882 1.44-3.853 1.44-5.914a3.94 3.94 0 00-3.957-4.002zm-2.967-7.825l-1.139 12.514v.12c0 .09-.06.179-.09.209s-.12.09-.21.06c-3.356-.628-6.264-.956-8.631-.956-2.398 0-5.305.328-8.632.955-.09.03-.18-.03-.21-.06s-.09-.089-.09-.208v-.12L7.684 41.208c-.12-1.403.869-2.628 2.278-2.837 2.157-.329 5.244-.687 7.762-.687 2.547 0 5.694.388 7.882.717 1.349.18 2.338 1.433 2.218 2.807z" fill="#020203"/></svg>