<svg width="100" height="44" fill="none" xmlns="http://www.w3.org/2000/svg"><path d="M6.065 12.989a1.565 1.565 0 001.246 1.123l7.494 1.266a1.565 1.565 0 001.61-2.325l-2.09-3.586.213-1.262a2.33 2.33 0 00-1.41-2.547l.015-.095a4.658 4.658 0 019.268.658v35.015a.78.78 0 101.56 0V6.312c0-3.29-2.522-6.078-5.804-6.298a6.22 6.22 0 00-6.57 5.325l-.035.237a2.335 2.335 0 00-1.646 1.847l-.213 1.26-3.15 2.702a1.561 1.561 0 00-.488 1.604zm6.933-5.046l-.13.77-1.54-.26.13-.77a.784.784 0 01.9-.642c.425.075.71.477.64.902zM7.563 12.57l3.095-2.646 2.358.4 2.047 3.515-7.492-1.268-.008-.002z" fill="#000"/><path d="M20.69 42.017c0 1.004-4.63 1.817-10.345 1.817C4.633 43.834 0 43.02 0 42.017c0-1.003 4.63-1.816 10.345-1.816 5.713 0 10.346.813 10.346 1.816z" fill="#DD8444"/><path d="M18.266 29.852c-.21 0-.415.027-.608.078l.422-4.689v-.005a3.238 3.238 0 00-2.754-3.464c-1.388-.203-3.386-.443-5.02-.443-1.628 0-3.588.24-4.946.44a3.241 3.241 0 00-2.749 3.461v.006l.424 4.694a2.426 2.426 0 00-3.033 2.346c0 3.389 2.138 5.605 3.113 6.44l-.657 2.265a.81.81 0 001.553.451l.64-2.205h11.393l.64 2.205a.807.807 0 001.002.551.808.808 0 00.55-1.002l-.809-2.787a.808.808 0 00-.796-.582l-.02-.002H4.316a7.876 7.876 0 01-1.281-1.329c-.94-1.232-1.417-2.58-1.417-4.005a.808.808 0 011.618 0c0 .033.002.063.006.096l.054.466a1.775 1.775 0 002.11 1.69c1.934-.367 3.596-.554 4.941-.554 1.346 0 3.01.187 4.94.555a1.777 1.777 0 002.11-1.69l.056-.467a.84.84 0 00.005-.096.808.808 0 011.617 0c0 .99-.235 1.954-.698 2.867a.807.807 0 101.44.733 7.88 7.88 0 00.872-3.598 2.424 2.424 0 00-2.423-2.426zm-1.797-4.754l-.685 7.61v.008a.73.73 0 00-.004.065.157.157 0 01-.058.124.159.159 0 01-.135.035c-2.03-.388-3.794-.584-5.241-.584-1.448 0-3.211.196-5.244.584a.158.158 0 01-.135-.035.155.155 0 01-.058-.124.787.787 0 00-.003-.065v-.007l-.686-7.617a1.62 1.62 0 011.375-1.729c1.305-.193 3.18-.422 4.709-.422 1.538 0 3.453.233 4.787.428a1.619 1.619 0 011.378 1.729zm18.701.426a.6.6 0 01-.212-.471c0-.348.28-.64.63-.64.145 0 .28.045.437.169.326.28.73.492 1.213.492.382 0 .707-.145.707-.46 0-.258-.236-.36-.572-.505l-.595-.247c-.942-.382-1.514-.82-1.514-1.695 0-1.065.863-1.67 2.041-1.67.662 0 1.302.212 1.751.594.18.134.27.314.27.516 0 .348-.28.63-.617.63-.135 0-.27-.068-.404-.157a1.785 1.785 0 00-1.009-.336c-.358 0-.594.123-.594.392 0 .226.18.337.583.495l.539.224c.998.403 1.56.83 1.56 1.694 0 1.146-.955 1.773-2.166 1.773-.835-.002-1.553-.315-2.047-.798zm6.161-2.12c0-1.628 1.302-2.895 2.973-2.895.942 0 1.818.45 2.243 1.1.1.157.135.28.135.404 0 .37-.304.673-.673.673a.612.612 0 01-.516-.237 1.485 1.485 0 00-1.167-.562c-.853 0-1.459.63-1.459 1.515 0 .898.606 1.525 1.459 1.525.481 0 .863-.223 1.167-.56a.622.622 0 01.516-.236c.371 0 .673.304.673.673a.635.635 0 01-.124.382c-.46.707-1.267 1.132-2.256 1.132-1.67.002-2.97-1.287-2.97-2.914zm12.285-.517v2.671c0 .438-.314.75-.729.75a.727.727 0 01-.729-.583c-.403.382-.965.595-1.627.595-1.145 0-1.918-.673-1.918-1.66 0-.998.796-1.617 2.098-1.617h1.39v-.247c0-.616-.37-.976-1.043-.976-.392 0-.74.134-1.065.414-.18.135-.304.18-.45.18-.37 0-.65-.28-.65-.616 0-.213.112-.415.314-.605.471-.439 1.2-.686 2.01-.686 1.525.002 2.4.865 2.4 2.38zm-1.514 1.224v-.068h-1.19c-.505 0-.774.191-.774.562 0 .371.304.606.797.606.663-.002 1.167-.473 1.167-1.1zm4.04-.371v-2.47c0-.438.325-.763.764-.763a.74.74 0 01.752.764v2.592c0 .617.439 1.066 1.055 1.066.605 0 1.033-.45 1.033-1.066v-2.592c0-.439.314-.764.763-.764a.74.74 0 01.751.764v2.469c0 1.525-1.054 2.58-2.547 2.58-1.516 0-2.57-1.055-2.57-2.58zm12.791-.998v2.805c0 .45-.315.775-.753.775-.425 0-.75-.336-.75-.774v-2.604c0-.64-.415-1.076-1.033-1.076-.617 0-1.055.449-1.055 1.076v2.604c0 .449-.325.774-.753.774a.753.753 0 01-.763-.774v-4.275a.74.74 0 01.752-.764c.348 0 .63.237.708.573.392-.36.942-.573 1.56-.573 1.267 0 2.087.875 2.087 2.233zm7.787.368v.033c0 .471-.336.775-.83.775h-3.165c.18.696.74 1.1 1.56 1.1a2.2 2.2 0 001.157-.326.615.615 0 01.325-.101c.348 0 .617.258.617.605 0 .247-.113.427-.382.606a3.156 3.156 0 01-1.762.516c-1.75 0-3.042-1.245-3.042-2.905 0-1.65 1.246-2.906 2.884-2.906 1.514.002 2.638 1.1 2.638 2.604zm-3.995-.258h2.526c-.022-.661-.495-1.121-1.202-1.121-.662 0-1.156.438-1.324 1.121zm6.013 2.424c0-.572.45-1.043 1.055-1.043.594 0 1.032.47 1.032 1.043 0 .584-.438 1.044-1.032 1.044a1.03 1.03 0 01-1.055-1.044zm12.993-2.534v2.805c0 .45-.325.775-.753.775a.751.751 0 01-.761-.774v-2.593c0-.662-.382-1.077-.988-1.077-.605 0-1.02.428-1.02 1.044v2.625c0 .45-.325.775-.752.775a.753.753 0 01-.764-.774v-2.593c0-.662-.393-1.077-.987-1.077-.617 0-1.022.428-1.022 1.077v2.593c0 .449-.326.774-.753.774a.753.753 0 01-.763-.774v-4.275a.74.74 0 01.752-.764c.347 0 .617.224.707.56.382-.358.899-.56 1.504-.56.718 0 1.291.28 1.65.797.437-.495 1.11-.797 1.85-.797 1.293 0 2.1.864 2.1 2.233zm8.124-4.331v7.147c0 .439-.315.762-.74.762a.748.748 0 01-.74-.707c-.382.449-.977.707-1.695.707-1.56 0-2.693-1.224-2.693-2.905 0-1.684 1.133-2.906 2.693-2.906.696 0 1.28.247 1.66.662v-2.76c0-.438.325-.774.764-.774.425 0 .75.325.75.774zm-1.493 5.004c0-.91-.573-1.537-1.402-1.537-.83 0-1.436.651-1.436 1.526 0 .898.594 1.536 1.436 1.536s1.402-.616 1.402-1.525z" fill="#000"/></svg>