<svg width="32" height="32" fill="none" xmlns="http://www.w3.org/2000/svg"><path d="M30.334 27.667H1.666c-.734 0-1.334-.6-1.334-1.334v-6.8c0-.733.6-1.333 1.334-1.333H30.4c.734 0 1.334.6 1.334 1.333v6.8c-.067.734-.667 1.334-1.4 1.334zm-27.4-2.6h26.133v-4.2H2.933v4.2z" fill="#000"/><path d="M1.667 31.667c-.734 0-1.334-.6-1.334-1.334V15.467c0-2.934 2.334-5.334 5.267-5.334.734 0 1.334.6 1.334 1.334 0 .733-.6 1.333-1.334 1.333-1.466 0-2.666 1.2-2.666 2.733V30.4c0 .667-.6 1.267-1.267 1.267zm28.666 0c-.733 0-1.333-.6-1.333-1.334V15.467c0-1.534-1.2-2.734-2.667-2.734-.733 0-1.333-.6-1.333-1.333s.6-1.333 1.333-1.333c2.867 0 5.267 2.4 5.267 5.333v14.867c.067.8-.533 1.4-1.267 1.4z" fill="#000"/><path d="M26.134 20.867H5.867c-.733 0-1.333-.6-1.333-1.334V11.8C4.534 5.467 9.667.333 16 .333c6.334 0 11.467 5.134 11.467 11.467v7.8c0 .667-.6 1.267-1.333 1.267zm-19-2.6H24.8V11.8c0-4.867-3.933-8.867-8.866-8.867A8.82 8.82 0 007.067 11.8v6.467h.067z" fill="#000"/></svg>