<svg width="32" height="32" fill="none" xmlns="http://www.w3.org/2000/svg"><path d="M6 31.667H4.133a3.798 3.798 0 01-3.8-3.8V13.2c0-2.133 1.667-3.867 3.8-3.867H6c2.133 0 3.8 1.734 3.8 3.8V27.8c0 2.2-1.733 3.867-3.8 3.867zM4.133 12c-.666 0-1.2.533-1.2 1.2v14.667c0 .666.534 1.2 1.2 1.2H6c.667 0 1.2-.534 1.2-1.2V13.2c0-.667-.533-1.2-1.2-1.2H4.133zm23.734 19.667H26a3.798 3.798 0 01-3.8-3.8V13.2c0-2.133 1.733-3.8 3.8-3.8h1.867c2.133 0 3.8 1.733 3.8 3.8v14.667c0 2.133-1.667 3.8-3.8 3.8zM26 12c-.666 0-1.2.533-1.2 1.2v14.667c0 .666.534 1.2 1.2 1.2h1.867c.666 0 1.2-.534 1.2-1.2V13.2c0-.667-.534-1.2-1.2-1.2H26z" fill="#000"/><path d="M23.467 28.067H8.534c-.734 0-1.334-.6-1.334-1.334V21.2c0-.733.6-1.334 1.334-1.334h15c.733 0 1.333.6 1.333 1.334v5.533c-.067.733-.667 1.334-1.4 1.334zM9.8 25.466h12.4v-2.934H9.8v2.933z" fill="#000"/><path d="M23.467 22.533H8.534c-.734 0-1.334-.6-1.334-1.333s.6-1.333 1.334-1.333h15c.733 0 1.333.6 1.333 1.333-.067.733-.667 1.333-1.4 1.333zm3.467-10.666c-.734 0-1.334-.6-1.334-1.334V5.667c0-1.6-.866-2.734-1.6-2.734H8.934c-.734 0-1.6 1.2-1.6 2.734V10.4c0 .733-.6 1.333-1.334 1.333-.733 0-1.333-.6-1.333-1.333V5.667c0-3 1.867-5.4 4.2-5.4H24c2.334 0 4.2 2.333 4.2 5.4v4.866c.067.734-.533 1.334-1.266 1.334z" fill="#000"/></svg>