<svg width="34" height="32" fill="none" xmlns="http://www.w3.org/2000/svg"><path d="M10.263 32H5.345a1.43 1.43 0 01-1.425-1.425v-9.123C1.64 20.668 0 18.387 0 15.822c0-3.279 2.566-5.987 5.773-5.987s5.773 2.637 5.773 5.987v14.824c.07.784-.57 1.354-1.283 1.354zM6.77 29.22h2.066V15.822c0-1.71-1.354-3.136-2.993-3.136-1.64 0-2.993 1.425-2.993 3.136 0 1.639 1.14 2.993 2.637 3.136.712.07 1.211.712 1.211 1.354v8.908h.072zM28.294 32h-4.847a1.43 1.43 0 01-1.425-1.425V15.822c0-3.279 2.566-5.987 5.773-5.987s5.773 2.637 5.773 5.987c0 2.566-1.64 4.846-3.92 5.63v9.194c0 .784-.57 1.354-1.354 1.354zm-3.492-2.78h2.066v-8.837c0-.713.5-1.283 1.212-1.354 1.497-.143 2.637-1.497 2.637-3.136 0-1.71-1.354-3.136-2.993-3.136-1.64 0-2.994 1.426-2.994 3.136V29.22h.072z" fill="#000"/><path d="M23.376 32H10.263a1.43 1.43 0 01-1.426-1.425v-10.69a1.43 1.43 0 011.426-1.426h13.185a1.43 1.43 0 011.425 1.425v10.69C24.802 31.43 24.16 32 23.376 32zm-11.76-2.78h10.406v-7.84H11.617v7.84z" fill="#000"/><path d="M23.376 21.38H10.263a1.43 1.43 0 01-1.426-1.425V7.697C8.837 3.492 12.258 0 16.535 0h.64c4.206 0 7.698 3.42 7.698 7.697v12.258c-.071.784-.713 1.426-1.497 1.426zm-11.76-2.85h10.406V7.697c0-2.708-2.21-4.846-4.846-4.846h-.641c-2.709 0-4.847 2.21-4.847 4.846V18.53h-.071z" fill="#000"/></svg>