<svg xmlns="http://www.w3.org/2000/svg" xmlns:xlink="http://www.w3.org/1999/xlink"><defs>
<clipPath id="clip0">
<rect width="35.4167" height="25" fill="white"/>
</clipPath>

<clipPath id="clip10">
<rect width="32" height="32.0001" fill="white"/>
</clipPath>
</defs><symbol id="acs" viewBox="0 0 32 32">
<path d="M16.0003 31.6666C15.267 31.6666 14.667 31.0666 14.667 30.3333V1.66659C14.667 0.933252 15.267 0.333252 16.0003 0.333252C16.7337 0.333252 17.3337 0.933252 17.3337 1.66659V30.3999C17.3337 31.0666 16.7337 31.6666 16.0003 31.6666Z" fill="black"/>
<path d="M30.3335 31.6665C29.8002 31.6665 29.3335 31.3332 29.1335 30.8665C28.1335 30.3332 23.6668 29.3998 16.0002 29.3998C8.3335 29.3998 3.80016 30.3332 2.86683 30.8665C2.66683 31.3332 2.20016 31.6665 1.66683 31.6665C0.933496 31.6665 0.333496 31.0665 0.333496 30.3332C0.333496 28.8665 1.86683 27.9998 5.66683 27.3998C8.46683 26.9332 12.1335 26.7332 16.0002 26.7332C19.9335 26.7332 23.6002 26.9998 26.3335 27.3998C30.1335 27.9998 31.6668 28.8665 31.6668 30.3332C31.6668 31.0665 31.0668 31.6665 30.3335 31.6665Z" fill="black"/>
<path d="M26.9334 9.8001H5.06673C4.3334 9.8001 3.7334 9.2001 3.7334 8.46676V3.93343C3.7334 3.2001 4.3334 2.6001 5.06673 2.6001C5.80007 2.6001 6.40007 3.2001 6.40007 3.93343V7.2001H25.7334V3.93343C25.7334 3.2001 26.3334 2.6001 27.0667 2.6001C27.8001 2.6001 28.4001 3.2001 28.4001 3.93343V8.53343C28.2667 9.2001 27.6667 9.8001 26.9334 9.8001Z" fill="black"/>
<path d="M5.00033 5.73335C3.73366 5.73335 2.66699 4.66668 2.66699 3.33335C2.66699 2.00002 3.73366 0.93335 5.06699 0.93335C6.40033 0.93335 7.46699 2.00002 7.46699 3.33335C7.46699 4.66668 6.33366 5.73335 5.00033 5.73335ZM5.00033 3.13335C4.86699 3.13335 4.73366 3.20002 4.73366 3.33335C4.73366 3.46668 4.86699 3.60002 5.00033 3.60002C5.13366 3.60002 5.26699 3.46668 5.26699 3.33335C5.26699 3.20002 5.13366 3.13335 5.00033 3.13335Z" fill="black"/>
<path d="M26.9337 6.2668C25.6004 6.2668 24.5337 5.20013 24.5337 3.8668C24.5337 2.53346 25.6004 1.4668 26.9337 1.4668C28.267 1.4668 29.3337 2.53346 29.3337 3.8668C29.3337 5.20013 28.267 6.2668 26.9337 6.2668ZM26.9337 3.6668C26.8004 3.6668 26.667 3.80013 26.667 3.93346C26.667 4.0668 26.8004 4.20013 26.9337 4.20013C27.067 4.20013 27.2004 4.0668 27.2004 3.93346C27.2004 3.80013 27.1337 3.6668 26.9337 3.6668Z" fill="black"/>
<path d="M26.9334 20.8668H5.06673C4.3334 20.8668 3.7334 20.2668 3.7334 19.5334V14.9334C3.7334 14.2001 4.3334 13.6001 5.06673 13.6001C5.80007 13.6001 6.40007 14.2001 6.40007 14.9334V18.2001H25.7334V14.9334C25.7334 14.2001 26.3334 13.6001 27.0667 13.6001C27.8001 13.6001 28.4001 14.2001 28.4001 14.9334V19.5334C28.2667 20.3334 27.6667 20.8668 26.9334 20.8668Z" fill="black"/>
<path d="M5.0001 16.8C3.66676 16.8 2.6001 15.7333 2.6001 14.4C2.6001 13.0667 3.66676 12 5.0001 12C6.33343 12 7.4001 13.0667 7.4001 14.4C7.4001 15.7333 6.33343 16.8 5.0001 16.8ZM5.0001 14.2C4.86676 14.2 4.73343 14.3333 4.73343 14.4667C4.73343 14.6 4.86676 14.6667 5.0001 14.6667C5.13343 14.6667 5.26676 14.5333 5.26676 14.4C5.26676 14.2667 5.13343 14.2 5.0001 14.2Z" fill="black"/>
<path d="M26.9337 17.4001C25.6004 17.4001 24.5337 16.3334 24.5337 15.0001C24.5337 13.6668 25.6004 12.6001 26.9337 12.6001C28.267 12.6001 29.3337 13.6668 29.3337 15.0001C29.3337 16.3334 28.267 17.4001 26.9337 17.4001ZM26.9337 14.8001C26.8004 14.8001 26.667 14.9334 26.667 15.0668C26.667 15.2001 26.8004 15.3334 26.9337 15.3334C27.067 15.3334 27.2004 15.2001 27.2004 15.0668C27.2004 14.8668 27.1337 14.8001 26.9337 14.8001Z" fill="black"/>
</symbol><symbol id="all-category" viewBox="0 0 32 24">
<path d="M30.75 10.75H1.25C0.559625 10.75 0 11.3096 0 12C0 12.6904 0.559625 13.25 1.25 13.25H30.75C31.4404 13.25 32 12.6904 32 12C32 11.3096 31.4404 10.75 30.75 10.75Z" fill="black"/>
<path d="M30.75 0.75H1.25C0.559625 0.75 0 1.30963 0 2C0 2.69037 0.559625 3.25 1.25 3.25H30.75C31.4404 3.25 32 2.69037 32 2C32 1.30963 31.4404 0.75 30.75 0.75Z" fill="black"/>
<path d="M30.75 20.75H1.25C0.559625 20.75 0 21.3096 0 22C0 22.6904 0.559625 23.25 1.25 23.25H30.75C31.4404 23.25 32 22.6904 32 22C32 21.3096 31.4404 20.75 30.75 20.75Z" fill="black"/>
</symbol><symbol id="all-goods" viewBox="0 0 36 25">
<g clip-path="url(#clip0)">
<path d="M12.1007 16.8382H3.98441C3.24656 16.8382 2.65628 16.3235 2.5825 15.5882L0.368956 1.91173C0.221386 1.10291 0.811664 0.367611 1.54951 0.294082C2.36114 0.147023 3.09899 0.661729 3.24656 1.47055L5.16496 13.9706H12.1007C12.9124 13.9706 13.5764 14.6323 13.5764 15.4411C13.5764 16.25 12.9124 16.8382 12.1007 16.8382Z" fill="black"/>
<path d="M11.0676 24.7793C10.3298 24.7793 9.73952 24.2646 9.66574 23.5293L8.92789 16.9117H5.23865L4.50081 23.5293C4.42702 24.2646 3.68917 24.8529 2.87754 24.7058C2.06591 24.6323 1.54942 23.897 1.6232 23.0882L2.50862 15.147C2.5824 14.4117 3.24647 13.897 3.91053 13.897H10.1084C10.8463 13.897 11.4366 14.4117 11.5104 15.147L12.5433 23.1617C12.6171 23.9705 12.0268 24.6323 11.289 24.7793C11.2152 24.7793 11.1414 24.7793 11.0676 24.7793Z" fill="black"/>
<path d="M31.4323 16.8382H23.316C22.5044 16.8382 21.8403 16.1765 21.8403 15.3677C21.8403 14.5588 22.5044 13.8971 23.316 13.8971H30.2518L32.244 1.39707C32.3916 0.588242 33.1294 0.0735369 33.8672 0.220596C34.6789 0.367655 35.1954 1.10295 35.0478 1.83824L32.908 15.5147C32.7605 16.3235 32.1702 16.8382 31.4323 16.8382Z" fill="black"/>
<path d="M32.3914 24.7795C31.6535 24.7795 31.0633 24.2648 30.9895 23.5295L30.2516 16.9119H26.5624L25.8245 23.5295C25.7508 24.3383 25.0129 24.8531 24.2013 24.7795C23.3896 24.706 22.8731 23.9707 22.9469 23.1619L23.8323 15.2207C23.9061 14.4854 24.5702 13.9707 25.2343 13.9707H31.4322C32.17 13.9707 32.7603 14.4854 32.8341 15.2207L33.7195 23.1619C33.7933 23.9707 33.203 24.6325 32.4652 24.7795H32.3914Z" fill="black"/>
<path d="M17.7086 24.7793C16.897 24.7793 16.2329 24.1175 16.2329 23.3087V6.69105C16.2329 5.88222 16.897 5.22046 17.7086 5.22046C18.5202 5.22046 19.1843 5.88222 19.1843 6.69105V23.3087C19.1843 24.1175 18.5202 24.7793 17.7086 24.7793Z" fill="black"/>
<path d="M24.2754 7.64699H11.1417C10.3301 7.64699 9.66602 6.98522 9.66602 6.1764C9.66602 5.36758 10.3301 4.70581 11.1417 4.70581H24.2016C25.0132 4.70581 25.6773 5.36758 25.6773 6.1764C25.6773 6.98522 25.0132 7.64699 24.2754 7.64699Z" fill="black"/>
</g>

</symbol><symbol id="breadcrumpsArrow" viewBox="0 0 9 8">
<path d="M0.646446 3.64645C0.451184 3.84171 0.451184 4.15829 0.646446 4.35355L3.82843 7.53553C4.02369 7.7308 4.34027 7.7308 4.53553 7.53553C4.7308 7.34027 4.7308 7.02369 4.53553 6.82843L1.70711 4L4.53553 1.17157C4.7308 0.97631 4.7308 0.659728 4.53553 0.464466C4.34027 0.269203 4.02369 0.269203 3.82843 0.464466L0.646446 3.64645ZM9 3.5L1 3.5L1 4.5L9 4.5L9 3.5Z" fill="#A3A5AD"/>
</symbol><symbol id="button-buy" viewBox="0 0 70 70">
<circle cx="35" cy="35" r="35" fill="#F18700"/>
<path d="M48.9688 24.4375H44.6835C44.1249 19.693 40.0796 16 35.1875 16C30.2954 16 26.2501 19.693 25.6915 24.4375H21.4062C20.6296 24.4375 20 25.0671 20 25.8438V50.5938C20 51.3704 20.6296 52 21.4062 52H48.9688C49.7454 52 50.375 51.3704 50.375 50.5938V25.8438C50.375 25.0671 49.7454 24.4375 48.9688 24.4375ZM35.1875 18.8125C38.5262 18.8125 41.306 21.2492 41.8432 24.4375H28.5318C29.069 21.2492 31.8488 18.8125 35.1875 18.8125ZM47.5625 49.1875H22.8125V27.25H25.625V31.4688C25.625 32.2454 26.2546 32.875 27.0312 32.875C27.8079 32.875 28.4375 32.2454 28.4375 31.4688V27.25H41.9375V31.4688C41.9375 32.2454 42.5671 32.875 43.3438 32.875C44.1204 32.875 44.75 32.2454 44.75 31.4688V27.25H47.5625V49.1875Z"/>
</symbol><symbol id="cart-btn" viewBox="0 0 32 32">
<path d="M28.25 7.5H24.4409C23.9443 3.28263 20.3486 0 16 0C11.6514 0 8.05569 3.28263 7.55912 7.5H3.75C3.05963 7.5 2.5 8.05962 2.5 8.75V30.75C2.5 31.4404 3.05963 32 3.75 32H28.25C28.9404 32 29.5 31.4404 29.5 30.75V8.75C29.5 8.05962 28.9404 7.5 28.25 7.5ZM16 2.5C18.9678 2.5 21.4387 4.66594 21.9162 7.5H10.0838C10.5613 4.66594 13.0322 2.5 16 2.5ZM27 29.5H5V10H7.5V13.75C7.5 14.4404 8.05963 15 8.75 15C9.44037 15 10 14.4404 10 13.75V10H22V13.75C22 14.4404 22.5596 15 23.25 15C23.9404 15 24.5 14.4404 24.5 13.75V10H27V29.5Z" fill="black"/>
</symbol><symbol id="chair-2" viewBox="0 0 32 32">
<path d="M26.7902 19.0233H5.09311C4.22522 19.0233 3.51514 18.4118 3.51514 17.6645C3.51514 16.9171 4.22522 16.3057 5.09311 16.3057H26.7902C27.6581 16.3057 28.3682 16.9171 28.3682 17.6645C28.3682 18.4118 27.6581 19.0233 26.7902 19.0233Z" fill="black"/>
<path d="M4.93515 32C4.06727 32 3.35718 31.3885 3.35718 30.6411V17.9363L0.122334 11.414C-0.193261 10.7346 0.122334 9.98723 0.832422 9.71547L6.67092 7.20167C7.45991 6.86196 8.3278 7.13373 8.72229 7.81313C9.11678 8.49254 8.80119 9.23988 8.0122 9.57958L3.51498 11.5499L6.27643 17.1889C6.35533 17.3248 6.43423 17.5286 6.43423 17.7324V30.7091C6.51313 31.3885 5.80304 32 4.93515 32Z" fill="black"/>
<path d="M26.8694 31.9998C26.0015 31.9998 25.2914 31.3883 25.2914 30.641V17.6643C25.2914 17.4605 25.3703 17.3246 25.4492 17.1208L28.2106 11.4817L23.7134 9.51147C22.9244 9.17177 22.6088 8.35648 23.0033 7.74502C23.3978 7.06561 24.3446 6.79385 25.0547 7.13355L30.8932 9.64735C31.6033 9.98705 31.9189 10.7344 31.6033 11.3459L28.3684 17.8682V30.573C28.3684 31.3883 27.7373 31.9998 26.8694 31.9998Z" fill="black"/>
<path d="M26.7109 25.2059H4.93491C4.06702 25.2059 3.35693 24.5944 3.35693 23.8471C3.35693 23.0997 4.06702 22.4883 4.93491 22.4883H26.632C27.4999 22.4883 28.21 23.0997 28.21 23.8471C28.21 24.5944 27.4999 25.2059 26.7109 25.2059Z" fill="black"/>
<path d="M24.2645 19.0233H7.53793C6.67005 19.0233 5.95996 18.4119 5.95996 17.6645V1.35881C5.95996 0.611465 6.67005 0 7.53793 0H24.2645C25.1323 0 25.8424 0.611465 25.8424 1.35881V17.6645C25.8424 18.4119 25.1323 19.0233 24.2645 19.0233ZM9.03701 16.3737H22.6865V2.71762H9.03701V16.3737Z" fill="black"/>
</symbol><symbol id="chair" viewBox="0 0 21 32">
<path d="M19.3361 23.0809H1.36169C0.612762 23.0809 0 22.4682 0 21.7192V19.132C0 17.2256 1.49786 15.7278 3.40423 15.7278H17.2935C19.1999 15.7278 20.6977 17.2256 20.6977 19.132V21.7192C20.6977 22.4682 20.085 23.0809 19.3361 23.0809ZM2.6553 20.3575H18.0424V19.0639C18.0424 18.6554 17.702 18.315 17.2935 18.315H3.40423C2.99573 18.315 2.6553 18.6554 2.6553 19.0639V20.3575Z" fill="black"/>
<path d="M1.36169 31.9999C0.612762 31.9999 0 31.3871 0 30.6382V21.7191C0 20.9702 0.612762 20.3574 1.36169 20.3574C2.11063 20.3574 2.72339 20.9702 2.72339 21.7191V30.6382C2.6553 31.3871 2.04254 31.9999 1.36169 31.9999Z" fill="black"/>
<path d="M19.3358 31.9999C18.5869 31.9999 17.9741 31.3871 17.9741 30.6382V21.7191C17.9741 20.9702 18.5869 20.3574 19.3358 20.3574C20.0847 20.3574 20.6975 20.9702 20.6975 21.7191V30.6382C20.6975 31.3871 20.0847 31.9999 19.3358 31.9999Z" fill="black"/>
<path d="M17.2253 18.3829H3.26794C2.85944 18.3829 2.51901 18.2467 2.24667 17.9063C1.97433 17.6339 1.90625 17.2254 1.90625 16.885L3.60837 1.15744C3.67645 0.476593 4.22113 0 4.90198 0H15.387C16.0679 0 16.6125 0.544678 16.6806 1.15744L18.5189 16.6807C18.5189 16.8169 18.587 16.885 18.587 17.0212C18.5189 17.7701 17.9742 18.3829 17.2253 18.3829ZM4.76581 15.7276H15.7274L14.2977 2.6553H6.19559L4.76581 15.7276Z" fill="black"/>
</symbol><symbol id="checked" viewBox="0 0 16 16">
<mask id="mask0" mask-type="alpha" maskUnits="userSpaceOnUse" x="1" y="3" width="14" height="11">
<path d="M6.00008 10.5858L13.293 3.29291L14.7072 4.70712L6.00008 13.4142L1.29297 8.70712L2.70718 7.29291L6.00008 10.5858Z" fill="white"/>
</mask>
<g mask="url(#mask0)">
<rect width="16" height="16" fill="black"/>
<rect width="16" height="16" fill="white"/>
</g>
</symbol><symbol id="close-btn" viewBox="0 0 16 16">
<path d="M16 1.4L14.6 0L8 6.6L1.4 0L0 1.4L6.6 8L0 14.6L1.4 16L8 9.4L14.6 16L16 14.6L9.4 8L16 1.4Z" fill="#DADADA"/>
</symbol><symbol id="dishes" viewBox="0 0 34 32">
<path d="M31.4409 25.3628H1.39737C0.628818 25.3628 0 24.734 0 23.9654V16.4196C0 15.651 0.628818 15.0222 1.39737 15.0222H31.5108C32.2793 15.0222 32.9081 15.651 32.9081 16.4196V24.0353C32.8383 24.8038 32.2095 25.3628 31.4409 25.3628ZM2.72488 22.6379H30.1134V17.7471H2.72488V22.6379Z" fill="black"/>
<path d="M31.4408 32.0001C30.6723 32.0001 30.0435 31.3713 30.0435 30.6027V24.0351C30.0435 23.2665 30.6723 22.6377 31.4408 22.6377C32.2094 22.6377 32.8382 23.2665 32.8382 24.0351V30.6027C32.8382 31.3713 32.2094 32.0001 31.4408 32.0001Z" fill="black"/>
<path d="M1.39737 32.0001C0.628818 32.0001 0 31.3713 0 30.6027V24.0351C0 23.2665 0.628818 22.6377 1.39737 22.6377C2.16593 22.6377 2.79475 23.2665 2.79475 24.0351V30.6027C2.72488 31.3713 2.09606 32.0001 1.39737 32.0001Z" fill="black"/>
<path d="M16.4193 17.7469C11.5285 17.7469 7.47607 13.8343 7.47607 9.01334C7.47607 8.24478 8.10489 7.61597 8.87345 7.61597H23.9651C24.7336 7.61597 25.3624 8.24478 25.3624 9.01334C25.3624 13.8343 21.3101 17.7469 16.4193 17.7469ZM10.4106 10.4107C11.0394 13.0657 13.4848 15.022 16.4193 15.022C19.3537 15.022 21.7991 13.0657 22.428 10.4107H10.4106Z" fill="black"/>
<path d="M15.3014 3.00462L14.463 4.12252L15.8604 3.91291V4.54173L14.463 4.40199L15.3713 5.45002L14.8124 5.79936L14.2534 4.54173L13.6945 5.79936L13.2054 5.45002L14.0438 4.40199L12.7163 4.54173V3.91291L13.9041 4.12252L13.0657 3.00462L13.6246 2.65527L14.1835 3.91291L14.7425 2.65527L15.3014 3.00462Z" fill="black"/>
<path d="M13.6943 6.28851L12.5065 5.51996L13.1353 4.82127L12.2271 4.89114V3.56363L13.1353 3.6335L12.5065 2.86495L13.7642 2.23613L14.1834 3.07455L14.6026 2.16626L15.7904 2.86495L15.1615 3.6335L16.1397 3.56363V4.89114L15.2314 4.82127L15.7904 5.51996L14.5327 6.21864L14.1135 5.31035L13.6943 6.28851Z" fill="black"/>
<path d="M18.7946 4.40199L18.2357 5.10067L19.144 4.96094V5.38015L18.2357 5.31028L18.7946 6.00897L18.4453 6.21857L18.0959 5.38015L17.6767 6.21857L17.3274 6.00897L17.8863 5.31028L16.978 5.45002V5.03081L17.8165 5.17054L17.2575 4.47186L17.6068 4.26225L17.9562 5.03081L18.3055 4.19238L18.7946 4.40199Z" fill="black"/>
<path d="M17.8166 6.70743L16.8385 6.14848L17.1179 5.79914H16.6987V4.68124H17.1179L16.8385 4.3319L17.8865 3.77295L18.0961 4.19216L18.3057 3.77295L19.3537 4.3319L19.0044 4.68124H19.4935V5.79914H19.0743L19.3537 6.14848L18.3057 6.70743L18.0961 6.21835L17.8166 6.70743Z" fill="black"/>
<path d="M17.5373 0.69862L16.9783 1.39731L17.8866 1.32744V1.74665L16.9783 1.67678L17.5373 2.37547L17.1879 2.58507L16.8386 1.74665L16.4194 2.51521L16.07 2.3056L16.629 1.60691L15.7207 1.74665V1.32744L16.5591 1.46718L16.0002 0.768488L16.3495 0.558882L16.8386 1.32744L17.1879 0.489014L17.5373 0.69862Z" fill="black"/>
<path d="M16.5588 3.00435L15.5807 2.37553L15.8601 2.02619L15.4409 2.09606V0.908293L15.8601 0.978161L15.5807 0.628818L16.6287 0L16.8383 0.489081L17.0479 0L18.0959 0.628818L17.7466 0.978161L18.2357 0.908293V2.09606L17.8165 2.02619L18.0959 2.4454L17.0479 3.00435L16.8383 2.51527L16.5588 3.00435Z" fill="black"/>
</symbol><symbol id="facebook" viewBox="0 0 48 48">
<path d="M0 24C0 10.7452 10.7452 0 24 0C37.2548 0 48 10.7452 48 24C48 37.2548 37.2548 48 24 48C10.7452 48 0 37.2548 0 24Z" fill="#3B5998"/>
<path d="M26.5014 38.1115V25.0542H30.1058L30.5835 20.5546H26.5014L26.5076 18.3025C26.5076 17.1289 26.6191 16.5001 28.3047 16.5001H30.558V12H26.9531C22.623 12 21.099 14.1828 21.099 17.8536V20.5551H18.3999V25.0547H21.099V38.1115H26.5014Z" fill="white"/>
</symbol><symbol id="favorite" viewBox="0 0 32 29">
<path d="M16 28.4697C15.5444 28.4697 15.1052 28.3047 14.7629 28.0049C13.4702 26.8745 12.2239 25.8123 11.1243 24.8752L11.1187 24.8704C7.89478 22.123 5.11084 19.7505 3.17383 17.4133C1.00854 14.8005 0 12.3232 0 9.61694C0 6.98755 0.901611 4.56177 2.53857 2.78613C4.19507 0.989502 6.46802 0 8.93945 0C10.7866 0 12.4783 0.583984 13.9673 1.7356C14.7188 2.31689 15.3999 3.02832 16 3.85815C16.6003 3.02832 17.2812 2.31689 18.033 1.7356C19.522 0.583984 21.2136 0 23.0608 0C25.532 0 27.8052 0.989502 29.4617 2.78613C31.0986 4.56177 32 6.98755 32 9.61694C32 12.3232 30.9917 14.8005 28.8264 17.4131C26.8894 19.7505 24.1057 22.1228 20.8823 24.8699C19.7808 25.8083 18.5325 26.8723 17.2368 28.0054C16.8948 28.3047 16.4553 28.4697 16 28.4697ZM8.93945 1.87451C6.9978 1.87451 5.21411 2.64941 3.9165 4.05664C2.59961 5.48511 1.87427 7.45972 1.87427 9.61694C1.87427 11.8931 2.72021 13.9287 4.61694 16.2173C6.4502 18.4294 9.177 20.7532 12.3342 23.4438L12.3401 23.4487C13.4438 24.3894 14.6951 25.4558 15.9973 26.5945C17.3074 25.4536 18.5605 24.3855 19.6665 23.4434C22.8235 20.7527 25.55 18.4294 27.3833 16.2173C29.2798 13.9287 30.1257 11.8931 30.1257 9.61694C30.1257 7.45972 29.4004 5.48511 28.0835 4.05664C26.7861 2.64941 25.0022 1.87451 23.0608 1.87451C21.6384 1.87451 20.3325 2.32666 19.1794 3.21826C18.1519 4.01318 17.436 5.01807 17.0164 5.72119C16.8005 6.08276 16.4207 6.29858 16 6.29858C15.5793 6.29858 15.1995 6.08276 14.9836 5.72119C14.5642 5.01807 13.8484 4.01318 12.8206 3.21826C11.6675 2.32666 10.3616 1.87451 8.93945 1.87451Z"/>
</symbol><symbol id="filter-btn" viewBox="0 0 16 16">
<path d="M1.10558 2.72257L6.3764 8.86192C6.45522 8.95244 6.49901 9.06819 6.49985 9.1882V12.9173C6.49934 12.9696 6.51536 13.0206 6.54561 13.0632C6.57586 13.1058 6.61881 13.1378 6.66831 13.1545L9.17324 13.988C9.21068 14.0006 9.25056 14.004 9.28959 13.998C9.32861 13.992 9.36565 13.9768 9.39761 13.9537C9.42958 13.9305 9.45556 13.9 9.47339 13.8648C9.49123 13.8296 9.5004 13.7906 9.50015 13.7512V9.1882C9.50142 9.06799 9.54578 8.95221 9.62516 8.86192L14.8944 2.72257C14.9489 2.6591 14.9841 2.58135 14.9957 2.49851C15.0074 2.41567 14.9951 2.33123 14.9602 2.25519C14.9253 2.17915 14.8694 2.1147 14.799 2.06947C14.7287 2.02424 14.6468 2.00013 14.5631 2H1.43842C1.35464 1.99983 1.27256 2.02372 1.20196 2.06884C1.13136 2.11395 1.07519 2.17838 1.04014 2.25448C1.00508 2.33058 0.992614 2.41514 1.00421 2.49812C1.01581 2.5811 1.051 2.659 1.10558 2.72257Z" stroke="#343538" stroke-width="1.3" stroke-linecap="round" stroke-linejoin="round"/>
</symbol><symbol id="google" viewBox="0 0 50 50">
<path d="M1 25C1 11.7452 11.7452 1 25 1C38.2548 1 49 11.7452 49 25C49 38.2548 38.2548 49 25 49C11.7452 49 1 38.2548 1 25Z" fill="white"/>
<path d="M25.0001 18.6213C26.953 18.6213 28.2703 19.4649 29.0215 20.1698L31.9566 17.304C30.1539 15.6284 27.8081 14.6 25.0001 14.6C20.9326 14.6 17.4197 16.9342 15.7095 20.3315L19.0721 22.9431C19.9157 20.4355 22.2499 18.6213 25.0001 18.6213Z" fill="#EA4335"/>
<path d="M34.984 25.2311C34.984 24.376 34.9147 23.752 34.7644 23.1049H25V26.9644H30.7316C30.616 27.9235 29.992 29.368 28.6053 30.3386L31.8871 32.8809C33.8516 31.0666 34.984 28.3973 34.984 25.2311Z" fill="#4285F4"/>
<path d="M19.0837 27.0569C18.8641 26.4098 18.737 25.7164 18.737 25C18.737 24.2835 18.8641 23.5902 19.0721 22.9431L15.7094 20.3315C15.0046 21.7413 14.6001 23.3244 14.6001 25C14.6001 26.6755 15.0046 28.2587 15.7094 29.6684L19.0837 27.0569Z" fill="#FBBC05"/>
<path d="M24.9998 35.4C27.8078 35.4 30.1651 34.4756 31.8869 32.8809L28.6051 30.3387C27.7269 30.9511 26.5482 31.3787 24.9998 31.3787C22.2496 31.3787 19.9154 29.5644 19.0834 27.0569L15.7207 29.6684C17.4309 33.0658 20.9322 35.4 24.9998 35.4Z" fill="#34A853"/>
<rect x="0.5" y="0.5" width="49" height="49" rx="24.5" stroke="#DADADA"/>
</symbol><symbol id="heart 1" viewBox="0 0 32 29">
<path d="M16 28.4697C15.5444 28.4697 15.1052 28.3047 14.7629 28.0049C13.4702 26.8745 12.2239 25.8123 11.1243 24.8752L11.1187 24.8704C7.89478 22.123 5.11084 19.7505 3.17383 17.4133C1.00854 14.8005 0 12.3232 0 9.61694C0 6.98755 0.901611 4.56177 2.53857 2.78613C4.19507 0.989502 6.46802 0 8.93945 0C10.7866 0 12.4783 0.583984 13.9673 1.7356C14.7188 2.31689 15.3999 3.02832 16 3.85815C16.6003 3.02832 17.2812 2.31689 18.033 1.7356C19.522 0.583984 21.2136 0 23.0608 0C25.532 0 27.8052 0.989502 29.4617 2.78613C31.0986 4.56177 32 6.98755 32 9.61694C32 12.3232 30.9917 14.8005 28.8264 17.4131C26.8894 19.7505 24.1057 22.1228 20.8823 24.8699C19.7808 25.8083 18.5325 26.8723 17.2368 28.0054C16.8948 28.3047 16.4553 28.4697 16 28.4697ZM8.93945 1.87451C6.9978 1.87451 5.21411 2.64941 3.9165 4.05664C2.59961 5.48511 1.87427 7.45972 1.87427 9.61694C1.87427 11.8931 2.72021 13.9287 4.61694 16.2173C6.4502 18.4294 9.177 20.7532 12.3342 23.4438L12.3401 23.4487C13.4438 24.3894 14.6951 25.4558 15.9973 26.5945C17.3074 25.4536 18.5605 24.3855 19.6665 23.4434C22.8235 20.7527 25.55 18.4294 27.3833 16.2173C29.2798 13.9287 30.1257 11.8931 30.1257 9.61694C30.1257 7.45972 29.4004 5.48511 28.0835 4.05664C26.7861 2.64941 25.0022 1.87451 23.0608 1.87451C21.6384 1.87451 20.3325 2.32666 19.1794 3.21826C18.1519 4.01318 17.436 5.01807 17.0164 5.72119C16.8005 6.08276 16.4207 6.29858 16 6.29858C15.5793 6.29858 15.1995 6.08276 14.9836 5.72119C14.5642 5.01807 13.8484 4.01318 12.8206 3.21826C11.6675 2.32666 10.3616 1.87451 8.93945 1.87451Z" fill="#DADADA"/>
</symbol><symbol id="instagram" viewBox="0 0 16 16">
<path fill-rule="evenodd" clip-rule="evenodd" d="M8.00002 0C5.82733 0 5.5549 0.00920933 4.70161 0.0481423C3.8501 0.0869797 3.26855 0.222229 2.7597 0.420006C2.23363 0.624419 1.78748 0.897966 1.34271 1.34271C0.897966 1.78748 0.624419 2.23363 0.420006 2.7597C0.222229 3.26855 0.0869797 3.8501 0.0481423 4.70161C0.00920933 5.5549 0 5.82733 0 8.00002C0 10.1727 0.00920933 10.4451 0.0481423 11.2984C0.0869797 12.1499 0.222229 12.7314 0.420006 13.2403C0.624419 13.7664 0.897966 14.2125 1.34271 14.6573C1.78748 15.102 2.23363 15.3756 2.7597 15.58C3.26855 15.7778 3.8501 15.913 4.70161 15.9519C5.5549 15.9908 5.82733 16 8.00002 16C10.1727 16 10.4451 15.9908 11.2984 15.9519C12.1499 15.913 12.7314 15.7778 13.2403 15.58C13.7664 15.3756 14.2125 15.102 14.6573 14.6573C15.102 14.2125 15.3756 13.7664 15.58 13.2403C15.7778 12.7314 15.913 12.1499 15.9519 11.2984C15.9908 10.4451 16 10.1727 16 8.00002C16 5.82733 15.9908 5.5549 15.9519 4.70161C15.913 3.8501 15.7778 3.26855 15.58 2.7597C15.3756 2.23363 15.102 1.78748 14.6573 1.34271C14.2125 0.897966 13.7664 0.624419 13.2403 0.420006C12.7314 0.222229 12.1499 0.0869797 11.2984 0.0481423C10.4451 0.00920933 10.1727 0 8.00002 0ZM8.00003 1.44144C10.1361 1.44144 10.3891 1.4496 11.2327 1.48809C12.0127 1.52365 12.4363 1.65398 12.7182 1.76354C13.0916 1.90867 13.3581 2.08202 13.638 2.36198C13.918 2.64191 14.0913 2.90841 14.2365 3.28183C14.346 3.56373 14.4764 3.98732 14.5119 4.76731C14.5504 5.61088 14.5586 5.86391 14.5586 8.00002C14.5586 10.1361 14.5504 10.3891 14.5119 11.2327C14.4764 12.0127 14.346 12.4363 14.2365 12.7182C14.0913 13.0916 13.918 13.3581 13.638 13.638C13.3581 13.918 13.0916 14.0913 12.7182 14.2365C12.4363 14.346 12.0127 14.4763 11.2327 14.5119C10.3893 14.5504 10.1363 14.5586 8.00003 14.5586C5.86377 14.5586 5.6108 14.5504 4.76732 14.5119C3.98733 14.4763 3.56374 14.346 3.28184 14.2365C2.90842 14.0913 2.64193 13.918 2.362 13.638C2.08207 13.3581 1.90868 13.0916 1.76355 12.7182C1.654 12.4363 1.52367 12.0127 1.4881 11.2327C1.44961 10.3891 1.44145 10.1361 1.44145 8.00002C1.44145 5.86391 1.44961 5.61088 1.4881 4.76731C1.52367 3.98732 1.654 3.56373 1.76355 3.28183C1.90868 2.90841 2.08204 2.64191 2.362 2.36198C2.64193 2.08202 2.90842 1.90867 3.28184 1.76354C3.56374 1.65398 3.98733 1.52365 4.76732 1.48809C5.61089 1.4496 5.86392 1.44144 8.00003 1.44144ZM3.89191 8.00002C3.89191 5.73114 5.73115 3.89189 8.00003 3.89189C10.2689 3.89189 12.1081 5.73114 12.1081 8.00002C12.1081 10.2689 10.2689 12.1081 8.00003 12.1081C5.73115 12.1081 3.89191 10.2689 3.89191 8.00002ZM8.00003 10.6667C6.52724 10.6667 5.33334 9.47276 5.33334 8.00001C5.33334 6.52723 6.52724 5.33333 8.00003 5.33333C9.47278 5.33333 10.6667 6.52723 10.6667 8.00001C10.6667 9.47276 9.47278 10.6667 8.00003 10.6667ZM12.2704 4.68955C12.8006 4.68955 13.2304 4.25977 13.2304 3.72957C13.2304 3.19937 12.8006 2.76955 12.2704 2.76955C11.7403 2.76955 11.3104 3.19937 11.3104 3.72957C11.3104 4.25977 11.7403 4.68955 12.2704 4.68955Z" fill="#737680"/>
</symbol><symbol id="light" viewBox="0 0 25 32">
<path d="M23.1063 15.5234H1.31915C0.910636 15.5234 0.502127 15.3191 0.229787 14.9787C0.025532 14.6383 -0.0425531 14.1617 0.0255318 13.7532L3.90637 0.953189C4.04254 0.40851 4.58722 0 5.19999 0H19.2255C19.8383 0 20.3148 0.40851 20.5191 0.953189L24.3319 13.617C24.3999 13.8212 24.468 13.9574 24.468 14.1617C24.3999 14.9106 23.8553 15.5234 23.1063 15.5234ZM3.15744 12.8H21.3361L18.2042 2.65531H6.22126L3.15744 12.8Z" fill="black"/>
<path d="M12.2129 22.8083C7.78743 22.8083 4.11084 19.1998 4.11084 14.7062C4.11084 13.9572 4.7236 13.3445 5.47254 13.3445C6.22147 13.3445 6.83424 13.9572 6.83424 14.7062C6.83424 17.7019 9.2853 20.0849 12.2129 20.0849C15.1406 20.0849 17.5917 17.6338 17.5917 14.7062C17.5917 13.9572 18.2044 13.3445 18.9534 13.3445C19.7023 13.3445 20.3151 13.9572 20.3151 14.7062C20.247 19.1998 16.6385 22.8083 12.2129 22.8083Z" fill="black"/>
<path d="M12.2128 32.0001C11.4638 32.0001 10.8511 31.3873 10.8511 30.6384V26.9618C10.8511 26.2129 11.4638 25.6001 12.2128 25.6001C12.9617 25.6001 13.5745 26.2129 13.5745 26.9618V30.6384C13.5064 31.3873 12.9617 32.0001 12.2128 32.0001Z" fill="black"/>
<path d="M19.4982 30.0256C19.0216 30.0256 18.4769 29.7532 18.2726 29.2085L16.7748 25.8724C16.5024 25.1915 16.7748 24.4426 17.4556 24.1022C18.1365 23.8298 18.8854 24.1022 19.2258 24.783L20.7237 28.1192C20.996 28.8 20.7237 29.549 20.0429 29.8894C19.8386 30.0256 19.6343 30.0256 19.4982 30.0256Z" fill="black"/>
<path d="M4.92755 30.0256C4.72329 30.0256 4.58712 29.9575 4.38287 29.8894C3.70202 29.617 3.42968 28.8 3.70202 28.1192L5.19989 24.783C5.47223 24.1022 6.28925 23.8298 6.9701 24.1022C7.65095 24.3745 7.92329 25.1915 7.65095 25.8724L6.15308 29.2085C5.94882 29.7532 5.47223 30.0256 4.92755 30.0256Z" fill="black"/>
</symbol><symbol id="like-btn" viewBox="0 0 32 30">
<path d="M15.9999 6.47691L14.9772 5.02098C14.4397 4.25585 13.8389 3.61319 13.1885 3.09542L13.1885 3.09537C11.9134 2.08025 10.4944 1.58081 8.93921 1.58081C6.82542 1.58081 4.89022 2.44664 3.46956 4.03274L15.9999 6.47691ZM15.9999 6.47691L17.0228 5.02103M15.9999 6.47691L17.0228 5.02103M17.0228 5.02103C17.5605 4.25565 18.161 3.61322 18.8112 3.09543L17.0228 5.02103ZM11.943 24.993L11.943 24.993L11.9476 24.997C13.0467 25.9613 14.2986 27.0597 15.5992 28.2303L15.6 28.231C15.7156 28.3353 15.8576 28.3879 16 28.3879C16.1425 28.3879 16.2847 28.335 16.3996 28.2314L16.4002 28.2309C17.6915 27.0684 18.9355 25.9769 20.0293 25.0172L20.0577 24.9923L20.0578 24.9922C23.3088 22.1404 25.9984 19.7756 27.8527 17.4722L27.8528 17.4721C29.8831 14.9503 30.75 12.6684 30.75 10.2304C30.75 7.79745 29.9402 5.60721 28.5303 4.03286L11.943 24.993ZM11.943 24.993C8.69153 22.1407 6.00186 19.7757 4.14751 17.4724M11.943 24.993L4.14751 17.4724M4.14751 17.4724C2.11706 14.9503 1.25 12.6683 1.25 10.2306C1.25 7.79747 2.05978 5.60722 3.46946 4.03286L4.14751 17.4724ZM23.0608 1.58081C25.1746 1.58081 27.1096 2.44663 28.5303 4.03281L18.8114 3.0953C20.0867 2.08019 21.5057 1.58081 23.0608 1.58081Z" stroke="black" stroke-width="2.5"/>
</symbol><symbol id="login-btn" viewBox="0 0 32 32">
<g clip-path="url(#clip10)">
<path d="M20.3377 12.2727L20.3378 12.2726C21.6018 11.0086 22.2295 9.49328 22.2295 7.70703C22.2295 5.92169 21.6019 4.4061 20.3377 3.1416C20.3376 3.14152 20.3376 3.14145 20.3375 3.14138M20.3377 12.2727L20.3375 3.14138M20.3377 12.2727C19.0738 13.5368 17.558 14.1646 15.772 14.1646C13.9866 14.1646 12.4709 13.5367 11.2066 12.2728M20.3377 12.2727L11.2066 12.2728M20.3375 3.14138C19.0732 1.87765 17.5576 1.25 15.772 1.25C13.9857 1.25 12.4704 1.87772 11.2064 3.1417C9.94234 4.40575 9.31445 5.92138 9.31445 7.70703C9.31445 9.4932 9.94236 11.0088 11.2066 12.2728M20.3375 3.14138L11.2066 12.2728" stroke="black" stroke-width="2.5"/>
<path d="M28.0111 24.6939L28.011 24.6929C27.9714 24.1214 27.8905 23.4866 27.7684 22.8053L28.0111 24.6939ZM28.0111 24.6939C28.0517 25.2725 28.0725 25.8793 28.0728 26.4966L28.0111 24.6939ZM27.311 20.9327L27.3109 20.9325C27.1314 20.3714 26.8856 19.8124 26.5791 19.2733L27.6658 18.6555L26.5791 19.2733C26.2715 18.7322 25.9201 18.2786 25.5416 17.9166L25.5414 17.9164C25.172 17.5629 24.7043 17.2636 24.1354 17.0381L27.311 20.9327ZM27.311 20.9327C27.4924 21.4993 27.6471 22.1291 27.7684 22.8049L27.311 20.9327ZM21.7135 17.0363C21.3342 17.2837 20.8919 17.5688 20.3996 17.8834L20.3983 17.8843C19.8576 18.2288 19.1813 18.5183 18.4223 18.7635C17.62 19.023 16.7957 19.1577 15.9731 19.1577C15.1504 19.1577 14.3263 19.0229 13.5235 18.7635L21.7135 17.0363ZM21.7135 17.0363C22.0012 16.849 22.1592 16.7644 22.2522 16.725C22.275 16.7153 22.2896 16.7101 22.2979 16.7075C22.9829 16.7091 23.5979 16.8255 24.1351 17.038L21.7135 17.0363ZM11.5482 17.8842L11.5474 17.8836C11.0595 17.5719 10.6169 17.2866 10.232 17.0359L10.2317 17.0357C9.94464 16.8486 9.78688 16.7641 9.69405 16.7247C9.67131 16.715 9.6567 16.7099 9.64846 16.7073C8.96333 16.7088 8.34863 16.8254 7.81165 17.0381L7.81145 17.0382C7.24314 17.2632 6.77518 17.5624 6.4052 17.9163L11.5482 17.8842ZM11.5482 17.8842C12.0887 18.2289 12.7651 18.5185 13.5233 18.7634L11.5482 17.8842ZM5.36795 19.2728L5.36788 19.2729C5.06152 19.8122 4.81567 20.3711 4.63591 20.9325L5.36795 19.2728ZM5.36795 19.2728C5.6746 18.7328 6.02609 18.2794 6.40495 17.9166L5.36795 19.2728ZM3.93599 24.6934L3.93597 24.6937C3.89558 25.2759 3.875 25.8825 3.875 26.4968C3.875 27.8827 4.30461 28.8871 5.06483 29.6113L3.93599 24.6934ZM3.93599 24.6934C3.97561 24.1204 4.0566 23.4854 4.17858 22.8053L3.93599 24.6934ZM26.8827 29.6113L26.8827 29.6113C27.6428 28.8881 28.0727 27.8839 28.0728 26.4971L26.8827 29.6113ZM26.8827 29.6113C26.1188 30.3383 25.0781 30.7502 23.678 30.7502H8.26978C6.8699 30.7502 5.82882 30.3381 5.06522 29.6117L26.8827 29.6113ZM22.3064 16.7052C22.3064 16.7053 22.3052 16.7056 22.3032 16.7059C22.3055 16.7053 22.3065 16.7052 22.3064 16.7052ZM9.63993 16.705C9.63988 16.7049 9.6409 16.7051 9.64317 16.7057C9.64112 16.7053 9.63999 16.705 9.63993 16.705ZM4.17861 22.8052C4.29988 22.1296 4.4545 21.4998 4.6358 20.9329L4.17861 22.8052ZM29.3228 26.4966C29.3225 25.8518 29.3008 25.2158 29.2581 24.6064L29.3228 26.4966Z" stroke="black" stroke-width="2.5"/>
</g>

</symbol><symbol id="logo-mobile" viewBox="0 0 100 44">
<path d="M6.06529 12.9885C6.22711 13.5722 6.71256 14.0103 7.31074 14.1122L14.8053 15.3776C14.8926 15.3922 14.9817 15.4012 15.0707 15.4012C15.6289 15.3976 16.1435 15.0976 16.4198 14.614C16.6962 14.1303 16.6944 13.534 16.4144 13.0522L14.3253 9.4667L14.538 8.20488C14.7235 7.13215 14.1362 6.07397 13.1289 5.65761L13.1435 5.56306C13.4907 3.14488 15.6453 1.40488 18.0835 1.57761C20.5198 1.75034 22.4089 3.77761 22.4107 6.22124V41.2358C22.4107 41.6667 22.7598 42.0158 23.1907 42.0158C23.6217 42.0158 23.9707 41.6667 23.9707 41.2358V6.31215C23.9707 3.02124 21.4489 0.233972 18.1671 0.0139721C14.9235 -0.202392 12.0562 2.11761 11.5962 5.33943L11.5617 5.57579C10.7053 5.8267 10.0671 6.54306 9.9162 7.42306L9.70347 8.68306L6.55256 11.3849C6.09256 11.7794 5.90347 12.4031 6.06529 12.9885ZM12.998 7.94306L12.8671 8.71216L11.3271 8.45215L11.458 7.68306C11.5217 7.30852 11.8471 7.03397 12.2271 7.03215C12.2707 7.03215 12.3144 7.03579 12.358 7.04125C12.7835 7.11579 13.0689 7.51761 12.998 7.94306ZM7.56347 12.5685L10.658 9.92306L13.0162 10.3231L15.0635 13.8376L7.57074 12.5703L7.56347 12.5685Z" fill="black"/>
<path d="M20.6909 42.0175C20.6909 43.0212 16.06 43.8339 10.3455 43.8339C4.63273 43.8339 0 43.0212 0 42.0175C0 41.0139 4.63091 40.2012 10.3455 40.2012C16.0582 40.2012 20.6909 41.0139 20.6909 42.0175Z" fill="#DD8444"/>
<path d="M18.2656 29.8523C18.0565 29.8523 17.851 29.8795 17.6583 29.9304L18.0801 25.2413C18.0801 25.2395 18.0801 25.2377 18.0801 25.2359C18.2201 23.5395 17.0092 22.0177 15.3256 21.7723C13.9383 21.5686 11.9401 21.3286 10.3056 21.3286C8.67832 21.3286 6.71832 21.5686 5.36014 21.7686C3.68014 22.0177 2.47286 23.5377 2.61104 25.2304C2.61104 25.2322 2.61104 25.2341 2.61104 25.2359L3.03468 29.9304C2.84013 29.8795 2.6365 29.8523 2.42559 29.8523C1.08923 29.8523 0.00195312 30.9395 0.00195312 32.2759C0.00195312 35.665 2.14013 37.8813 3.11468 38.7159L2.45832 40.9813C2.33468 41.4104 2.58013 41.8577 3.00922 41.9832C3.08377 42.005 3.16013 42.0159 3.23468 42.0159C3.58559 42.0159 3.90741 41.7868 4.01104 41.4323L4.65104 39.2268H16.0438L16.6838 41.4323C16.7856 41.7868 17.1092 42.0159 17.4601 42.0159C17.5347 42.0159 17.611 42.005 17.6856 41.9832C18.1147 41.8595 18.3601 41.4104 18.2365 40.9813L17.4274 38.1941C17.3238 37.8341 16.9892 37.6032 16.631 37.6122C16.6238 37.6122 16.6183 37.6104 16.611 37.6104H4.3165C4.05104 37.3959 3.53832 36.9432 3.03468 36.2813C2.09468 35.0486 1.61832 33.7013 1.61832 32.2759C1.61832 31.8304 1.98013 31.4686 2.42741 31.4686C2.87468 31.4686 3.2365 31.8304 3.2365 32.2759C3.2365 32.3086 3.23832 32.3395 3.24195 32.3722L3.2965 32.8377C3.31286 33.3486 3.54377 33.825 3.94013 34.1522C4.34922 34.4904 4.88559 34.6286 5.40741 34.5286C7.34013 34.1613 9.00195 33.9741 10.3474 33.9741C11.6929 33.9741 13.3565 34.1613 15.2874 34.5286C15.811 34.6286 16.3456 34.4904 16.7547 34.1522C17.1492 33.825 17.382 33.3486 17.3983 32.8377L17.4529 32.3722C17.4565 32.3413 17.4583 32.3086 17.4583 32.2759C17.4583 31.8304 17.8201 31.4686 18.2656 31.4686C18.711 31.4686 19.0747 31.8304 19.0747 32.2759C19.0747 33.2668 18.8401 34.2304 18.3765 35.1432C18.1747 35.5413 18.3329 36.0268 18.731 36.2304C19.1292 36.4322 19.6147 36.2741 19.8165 35.8759C20.3965 34.7341 20.6892 33.5232 20.6892 32.2777C20.691 30.9395 19.6038 29.8523 18.2656 29.8523ZM16.4692 25.0977L15.7838 32.7086C15.7838 32.7104 15.7838 32.7141 15.7838 32.7159C15.782 32.7377 15.7801 32.7595 15.7801 32.7813C15.7801 32.845 15.7474 32.8832 15.722 32.905C15.6947 32.9268 15.6492 32.9522 15.5874 32.9395C13.5565 32.5522 11.7929 32.3559 10.3456 32.3559C8.89832 32.3559 7.13468 32.5522 5.10195 32.9395C5.04013 32.9522 4.99468 32.9268 4.96741 32.905C4.94013 32.8832 4.90922 32.8432 4.90922 32.7813C4.90922 32.7595 4.90741 32.7377 4.90559 32.7159C4.90559 32.7141 4.90559 32.7104 4.90559 32.7086L4.22013 25.0922C4.15286 24.2468 4.75468 23.4868 5.59468 23.3632C6.90013 23.1704 8.77468 22.9413 10.3038 22.9413C11.842 22.9413 13.7565 23.1741 15.091 23.3686C15.9329 23.4922 16.5383 24.2504 16.4692 25.0977Z" fill="black"/>
<path d="M35.1707 25.5236C35.0253 25.4 34.958 25.2327 34.958 25.0527C34.958 24.7054 35.238 24.4127 35.5871 24.4127C35.7326 24.4127 35.8671 24.4582 36.0253 24.5818C36.3507 24.8618 36.7544 25.0745 37.238 25.0745C37.6198 25.0745 37.9453 24.9291 37.9453 24.6145C37.9453 24.3563 37.7089 24.2545 37.3726 24.1091L36.778 23.8618C35.8362 23.48 35.2635 23.0418 35.2635 22.1672C35.2635 21.1018 36.1271 20.4963 37.3053 20.4963C37.9671 20.4963 38.6071 20.7091 39.0562 21.0909C39.2362 21.2254 39.3253 21.4054 39.3253 21.6072C39.3253 21.9545 39.0453 22.2363 38.7089 22.2363C38.5744 22.2363 38.4398 22.1691 38.3053 22.08C38.0144 21.8782 37.6653 21.7436 37.2962 21.7436C36.938 21.7436 36.7016 21.8673 36.7016 22.1363C36.7016 22.3618 36.8816 22.4727 37.2853 22.6309L37.8235 22.8545C38.8216 23.2582 39.3835 23.6854 39.3835 24.5491C39.3835 25.6945 38.4289 26.3218 37.218 26.3218C36.3835 26.32 35.6653 26.0072 35.1707 25.5236Z" fill="black"/>
<path d="M41.3311 23.4038C41.3311 21.7765 42.6329 20.5093 44.3038 20.5093C45.2456 20.5093 46.122 20.9584 46.5474 21.6093C46.6474 21.7656 46.682 21.8893 46.682 22.0129C46.682 22.3838 46.3783 22.6856 46.0092 22.6856C45.7965 22.6856 45.6274 22.6184 45.4929 22.4493C45.2129 22.1129 44.8201 21.8875 44.3256 21.8875C43.4729 21.8875 42.8674 22.5166 42.8674 23.402C42.8674 24.3002 43.4729 24.9275 44.3256 24.9275C44.8074 24.9275 45.1892 24.7038 45.4929 24.3675C45.6492 24.1875 45.8074 24.1311 46.0092 24.1311C46.3802 24.1311 46.682 24.4347 46.682 24.8038C46.682 24.9384 46.6492 25.0511 46.5583 25.1856C46.0983 25.8929 45.2911 26.3184 44.302 26.3184C42.6329 26.3202 41.3311 25.0311 41.3311 23.4038Z" fill="black"/>
<path d="M53.6164 22.8871V25.558C53.6164 25.9962 53.3019 26.3089 52.8873 26.3089C52.5164 26.3089 52.2255 26.0616 52.1582 25.7253C51.7546 26.1071 51.1928 26.3198 50.531 26.3198C49.3855 26.3198 48.6128 25.6471 48.6128 24.6598C48.6128 23.6616 49.4092 23.0434 50.711 23.0434H52.1019V22.7962C52.1019 22.1798 51.731 21.8198 51.0582 21.8198C50.6655 21.8198 50.3182 21.9544 49.9928 22.2344C49.8128 22.3689 49.6892 22.4144 49.5437 22.4144C49.1728 22.4144 48.8928 22.1344 48.8928 21.798C48.8928 21.5853 49.0055 21.3834 49.2073 21.1925C49.6782 20.7544 50.4073 20.5071 51.2164 20.5071C52.7419 20.5089 53.6164 21.3725 53.6164 22.8871ZM52.1019 24.1107V24.0434H50.9128C50.4073 24.0434 50.1382 24.2344 50.1382 24.6053C50.1382 24.9762 50.4419 25.2107 50.9346 25.2107C51.5982 25.2089 52.1019 24.738 52.1019 24.1107Z" fill="black"/>
<path d="M56.1421 23.7398V21.2707C56.1421 20.8325 56.4675 20.5071 56.9057 20.5071C57.333 20.5071 57.6585 20.8325 57.6585 21.2707V23.8634C57.6585 24.4798 58.0966 24.9289 58.713 24.9289C59.3185 24.9289 59.7457 24.4798 59.7457 23.8634V21.2707C59.7457 20.8325 60.0603 20.5071 60.5094 20.5071C60.9367 20.5071 61.2603 20.8325 61.2603 21.2707V23.7398C61.2603 25.2653 60.2057 26.3198 58.713 26.3198C57.1966 26.3198 56.1421 25.2653 56.1421 23.7398Z" fill="black"/>
<path d="M68.933 22.742V25.5475C68.933 25.9965 68.6184 26.322 68.1802 26.322C67.7548 26.322 67.4293 25.9856 67.4293 25.5475V22.9438C67.4293 22.3038 67.0148 21.8675 66.3966 21.8675C65.7802 21.8675 65.3421 22.3165 65.3421 22.9438V25.5475C65.3421 25.9965 65.0166 26.322 64.5893 26.322C64.1511 26.322 63.8257 25.9856 63.8257 25.5475V21.2729C63.8257 20.8347 64.1511 20.5093 64.5784 20.5093C64.9257 20.5093 65.2075 20.7456 65.2857 21.082C65.6784 20.722 66.2275 20.5093 66.8457 20.5093C68.113 20.5093 68.933 21.3838 68.933 22.742Z" fill="black"/>
<path d="M76.7201 23.1107V23.1434C76.7201 23.6144 76.3837 23.918 75.8892 23.918H72.7255C72.9055 24.6144 73.4655 25.018 74.2855 25.018C74.6891 25.018 75.1055 24.9053 75.4419 24.6925C75.5546 24.6253 75.6546 24.5907 75.7673 24.5907C76.1146 24.5907 76.3837 24.8489 76.3837 25.1962C76.3837 25.4434 76.271 25.6234 76.0019 25.8016C75.4964 26.138 74.891 26.318 74.2401 26.318C72.4891 26.318 71.1982 25.0725 71.1982 23.4125C71.1982 21.7634 72.4437 20.5071 74.0819 20.5071C75.5964 20.5089 76.7201 21.6071 76.7201 23.1107ZM72.7255 22.8525H75.251C75.2291 22.1907 74.7564 21.7307 74.0492 21.7307C73.3873 21.7307 72.8928 22.1689 72.7255 22.8525Z" fill="black"/>
<path d="M78.7383 25.2763C78.7383 24.7036 79.1874 24.2327 79.7928 24.2327C80.3874 24.2327 80.8255 24.7036 80.8255 25.2763C80.8255 25.8599 80.3874 26.3199 79.7928 26.3199C79.1874 26.3199 78.7383 25.8599 78.7383 25.2763Z" fill="black"/>
<path d="M91.7311 22.742V25.5475C91.7311 25.9965 91.4057 26.322 90.9784 26.322C90.5402 26.322 90.2166 25.9856 90.2166 25.5475V22.9547C90.2166 22.2929 89.8348 21.8784 89.2293 21.8784C88.6238 21.8784 88.2093 22.3056 88.2093 22.922V25.5475C88.2093 25.9965 87.8838 26.322 87.4566 26.322C87.0184 26.322 86.6929 25.9856 86.6929 25.5475V22.9547C86.6929 22.2929 86.3002 21.8784 85.7057 21.8784C85.0893 21.8784 84.6838 22.3056 84.6838 22.9547V25.5475C84.6838 25.9965 84.3584 26.322 83.9311 26.322C83.4929 26.322 83.1675 25.9856 83.1675 25.5475V21.2729C83.1675 20.8347 83.4929 20.5093 83.9202 20.5093C84.2675 20.5093 84.5366 20.7329 84.6275 21.0693C85.0093 20.7111 85.5257 20.5093 86.1311 20.5093C86.8493 20.5093 87.422 20.7893 87.7802 21.3056C88.2184 20.8111 88.8911 20.5093 89.6311 20.5093C90.9238 20.5093 91.7311 21.3729 91.7311 22.742Z" fill="black"/>
<path d="M99.8545 18.411V25.5583C99.8545 25.9965 99.54 26.3201 99.1145 26.3201C98.7218 26.3201 98.3964 26.0056 98.3746 25.6128C97.9927 26.0619 97.3982 26.3201 96.68 26.3201C95.12 26.3201 93.9873 25.0965 93.9873 23.4147C93.9873 21.731 95.12 20.5092 96.68 20.5092C97.3764 20.5092 97.96 20.7565 98.34 21.171V18.411C98.34 17.9728 98.6655 17.6365 99.1036 17.6365C99.5291 17.6365 99.8545 17.9619 99.8545 18.411ZM98.3618 23.4147C98.3618 22.5056 97.7891 21.8783 96.96 21.8783C96.1291 21.8783 95.5237 22.5292 95.5237 23.4037C95.5237 24.3019 96.1182 24.9401 96.96 24.9401C97.8018 24.9401 98.3618 24.3237 98.3618 23.4147Z" fill="black"/>
</symbol><symbol id="logo" viewBox="0 0 41 72">
<path d="M10.6802 21.3176C10.95 22.2733 11.7592 22.9901 12.7182 23.1693L25.066 25.2599C25.2159 25.2898 25.3657 25.2898 25.5156 25.2898C26.4447 25.2898 27.2838 24.7821 27.7334 24.0056C28.1829 23.1992 28.1829 22.2435 27.7334 21.4371L24.2868 15.5535L24.6464 13.4928C24.9461 11.7307 23.9871 9.99847 22.3387 9.31155L22.3687 9.16222C22.9381 5.19006 26.5046 2.32293 30.5206 2.62159C34.5367 2.92025 37.6536 6.23536 37.6536 10.2374V67.7591C37.6536 68.4759 38.223 69.0433 38.9423 69.0433C39.6616 69.0433 40.231 68.4759 40.231 67.7591V10.3569C40.231 4.95113 36.0652 0.381649 30.6705 0.0232579C25.3358 -0.335133 20.6004 3.4877 19.8512 8.77396L19.7912 9.16222C18.3826 9.58034 17.3337 10.7451 17.0639 12.2085L16.7043 14.2693L11.5194 18.7193C10.7402 19.3465 10.4105 20.3619 10.6802 21.3176ZM22.0989 13.0448L21.8892 14.2992L19.3417 13.881L19.5515 12.6267C19.6713 11.9995 20.1808 11.5515 20.8102 11.5515C20.8702 11.5515 20.9601 11.5515 21.02 11.5814C21.7393 11.671 22.2188 12.328 22.0989 13.0448ZM13.1378 20.6307L18.2328 16.3002L22.1289 16.9572L25.5156 22.7213L13.1378 20.6307Z" fill="#020203"/>
<path d="M17.7231 72C27.1413 72 34.7762 70.6629 34.7762 69.0134C34.7762 67.364 27.1413 66.0269 17.7231 66.0269C8.30488 66.0269 0.669922 67.364 0.669922 69.0134C0.669922 70.6629 8.30488 72 17.7231 72Z" fill="#F18700"/>
<path d="M30.79 49.0331C30.4303 49.0331 30.1007 49.063 29.801 49.1526L30.4903 41.4472C30.73 38.6697 28.722 36.1609 25.9348 35.7727C23.657 35.4442 20.3603 35.0559 17.663 35.0559C14.9956 35.0559 11.7588 35.4442 9.51101 35.7727C6.75373 36.1908 4.74571 38.6697 4.98548 41.4472L5.67479 49.1526C5.34512 49.063 5.01545 49.0331 4.68577 49.0331C2.46796 49.0331 0.699707 50.8251 0.699707 53.0053C0.699707 58.5604 4.23621 62.204 5.82465 63.5778L4.74571 67.3111C4.53592 68.0279 4.95551 68.7446 5.64483 68.9537C5.76471 68.9836 5.88459 69.0134 6.00447 69.0134C6.57391 69.0134 7.11338 68.6252 7.2932 68.0577L8.34216 64.4439H27.1336L28.1826 68.0577C28.3624 68.6252 28.8719 69.0134 29.4713 69.0134C29.5912 69.0134 29.7111 68.9836 29.8309 68.9537C30.5502 68.7446 30.9398 68.0279 30.7301 67.3111L29.4114 62.7416C29.2315 62.1443 28.6921 61.756 28.0927 61.7859H28.0627H7.80269C7.35314 61.4275 6.51396 60.6808 5.67479 59.6057C4.11633 57.5748 3.3371 55.3647 3.3371 53.0352C3.3371 52.2885 3.93651 51.7211 4.6558 51.7211C5.37509 51.7211 5.9745 52.3184 5.9745 53.0352C5.9745 53.0949 5.9745 53.1546 5.9745 53.1845L6.06441 53.961C6.09438 54.7973 6.48399 55.5738 7.11337 56.1114C7.80269 56.6788 8.67184 56.8879 9.54098 56.7385C12.7178 56.1412 15.4751 55.8426 17.6929 55.8426C19.9107 55.8426 22.638 56.1412 25.8449 56.7385C26.714 56.8879 27.5832 56.6788 28.2725 56.1114C28.9318 55.5738 29.3214 54.7973 29.3214 53.961L29.4114 53.1845C29.4114 53.1248 29.4114 53.0949 29.4114 53.0352C29.4114 52.2885 30.0108 51.7211 30.7301 51.7211C31.4793 51.7211 32.0487 52.3184 32.0487 53.0352C32.0487 54.6479 31.6591 56.2607 30.9099 57.754C30.5802 58.411 30.8499 59.2174 31.5093 59.5459C32.1686 59.8745 32.9778 59.6057 33.3075 58.9486C34.2666 57.0671 34.7461 55.0959 34.7461 53.0352C34.7761 50.8251 33.0078 49.0331 30.79 49.0331ZM27.8229 41.2083L26.684 53.7221C26.684 53.752 26.684 53.7818 26.684 53.8416C26.684 53.9312 26.6241 54.0207 26.5941 54.0506C26.5642 54.0805 26.4743 54.1402 26.3843 54.1103C23.0277 53.4832 20.1205 53.1546 17.7529 53.1546C15.3552 53.1546 12.4481 53.4832 9.12139 54.1103C9.03148 54.1402 8.94157 54.0805 8.9116 54.0506C8.88163 54.0207 8.82169 53.961 8.82169 53.8416C8.82169 53.8117 8.82169 53.7818 8.82169 53.7221L7.68281 41.2083C7.56293 39.8046 8.55195 38.5801 9.96056 38.371C12.1184 38.0425 15.2054 37.6841 17.7229 37.6841C20.2704 37.6841 23.4173 38.0724 25.6051 38.4009C26.9538 38.5801 27.9428 39.8345 27.8229 41.2083Z" fill="#020203"/>
</symbol><symbol id="minus-icon" viewBox="0 0 12 10">
<mask id="mask0" mask-type="alpha" maskUnits="userSpaceOnUse" x="0" y="4" width="11" height="2">
<rect x="0.835938" y="4.37488" width="9.74684" height="1.25" fill="white"/>
</mask>
<g mask="url(#mask0)">
<rect width="11.1392" height="10" transform="translate(0.139648 -0.00012207)" fill="white"/>
<rect x="0.139648" y="-0.00012207" width="11.1392" height="10" fill="#737680"/>
</g>
</symbol><symbol id="padination-arrow-left" viewBox="0 0 20 20">
<path d="M14.375 9.375H7.75876L10.3343 6.79938C10.5788 6.555 10.5788 6.15938 10.3343 5.91562C10.09 5.67124 9.69438 5.67124 9.45062 5.91562L5.915 9.45124C5.76562 9.60062 5.71876 9.80624 5.7531 10C5.71873 10.1938 5.76562 10.3994 5.91562 10.5494L9.45124 14.085C9.69562 14.3294 10.0912 14.3294 10.335 14.085C10.5794 13.8406 10.5794 13.445 10.335 13.2012L7.75876 10.625H14.375C14.72 10.625 15 10.345 15 10C15 9.655 14.72 9.375 14.375 9.375ZM10 0C4.47686 0 0 4.47686 0 10C0 15.5225 4.47686 20 10 20C15.5231 20 20 15.5225 20 10C20 4.47686 15.5231 0 10 0ZM10 18.75C5.16748 18.75 1.25 14.8325 1.25 10C1.25 5.16748 5.16748 1.25 10 1.25C14.8325 1.25 18.75 5.16748 18.75 10C18.75 14.8325 14.8325 18.75 10 18.75Z" fill="black"/>
</symbol><symbol id="padination-arrow-right" viewBox="0 0 20 20">
<path d="M14.085 9.45062L10.5494 5.915C10.305 5.67062 9.90941 5.67062 9.66565 5.915C9.42128 6.15938 9.42128 6.555 9.66565 6.79876L12.2413 9.375H5.625C5.28 9.375 5 9.655 5 10C5 10.345 5.28 10.625 5.625 10.625H12.2412L9.66562 13.2006C9.42124 13.445 9.42124 13.8406 9.66562 14.0843C9.91 14.3288 10.3056 14.3288 10.5493 14.0843L14.085 10.5488C14.235 10.3988 14.2812 10.1938 14.2475 9.99938C14.2812 9.80624 14.2344 9.60062 14.085 9.45062ZM10 0C4.47686 0 0 4.47686 0 10C0 15.5231 4.47686 20 10 20C15.5231 20 20 15.5225 20 10C20 4.47752 15.5231 0 10 0ZM10 18.75C5.16748 18.75 1.25 14.8325 1.25 10C1.25 5.16748 5.16748 1.25 10 1.25C14.8325 1.25 18.75 5.16748 18.75 10C18.75 14.8325 14.8325 18.75 10 18.75Z" fill="black"/>
</symbol><symbol id="play-button" viewBox="0 0 52 53">
<rect x="0.166748" y="0.888718" width="51.6667" height="51.7465" rx="25.8333" fill="white"/>
<path fill-rule="evenodd" clip-rule="evenodd" d="M22.7705 19.6468V33.8771L33.1038 26.762L22.7705 19.6468Z" fill="#343538"/>
</symbol><symbol id="plus-icon" viewBox="0 0 12 10">
<mask id="mask0" mask-type="alpha" maskUnits="userSpaceOnUse" x="0" y="0" width="11" height="10">
<path fill-rule="evenodd" clip-rule="evenodd" d="M6.38021 0.624878H4.98781V4.37488H0.810547V5.62488H4.98781V9.37488H6.38021V5.62488H10.5574V4.37488H6.38021V0.624878Z" fill="white"/>
</mask>
<g mask="url(#mask0)">
<rect width="11.1392" height="10" transform="translate(0.114258 -0.00012207)" fill="white"/>
<rect x="0.114258" y="-0.00012207" width="11.1392" height="10" fill="#737680"/>
</g>
</symbol><symbol id="search" viewBox="0 0 20 20">
<path d="M19.8281 18.9811L14.9664 14.1205C16.2706 12.6215 17.0602 10.6658 17.0602 8.52818C17.0602 3.82283 13.232 0 8.53008 0C3.82367 0 0 3.82726 0 8.52818C0 13.2291 3.82811 17.0564 8.53008 17.0564C10.6681 17.0564 12.6243 16.267 14.1236 14.9631L18.9853 19.8237C19.1006 19.939 19.2559 20.0011 19.4067 20.0011C19.5575 20.0011 19.7128 19.9434 19.8281 19.8237C20.0588 19.5931 20.0588 19.2117 19.8281 18.9811ZM1.19323 8.52818C1.19323 4.48362 4.48461 1.1974 8.52564 1.1974C12.5711 1.1974 15.858 4.48805 15.858 8.52818C15.858 12.5683 12.5711 15.8634 8.52564 15.8634C4.48461 15.8634 1.19323 12.5728 1.19323 8.52818Z" fill="#A3A5AD"/>
</symbol><symbol id="sofa-2" viewBox="0 0 32 32">
<path d="M30.3335 27.6666H1.66683C0.933496 27.6666 0.333496 27.0666 0.333496 26.3333V19.5333C0.333496 18.8 0.933496 18.2 1.66683 18.2H30.4002C31.1335 18.2 31.7335 18.8 31.7335 19.5333V26.3333C31.6668 27.0666 31.0668 27.6666 30.3335 27.6666ZM2.9335 25.0666H29.0668V20.8666H2.9335V25.0666Z" fill="black"/>
<path d="M1.66683 31.6666C0.933496 31.6666 0.333496 31.0666 0.333496 30.3333V15.4666C0.333496 12.5333 2.66683 10.1333 5.60016 10.1333C6.3335 10.1333 6.9335 10.7333 6.9335 11.4666C6.9335 12.2 6.3335 12.8 5.60016 12.8C4.1335 12.8 2.9335 14 2.9335 15.5333V30.4C2.9335 31.0666 2.3335 31.6666 1.66683 31.6666Z" fill="black"/>
<path d="M30.3333 31.6667C29.6 31.6667 29 31.0667 29 30.3333V15.4667C29 13.9333 27.8 12.7333 26.3333 12.7333C25.6 12.7333 25 12.1333 25 11.4C25 10.6667 25.6 10.0667 26.3333 10.0667C29.2 10.0667 31.6 12.4667 31.6 15.4V30.2667C31.6667 31.0667 31.0667 31.6667 30.3333 31.6667Z" fill="black"/>
<path d="M26.1337 20.8666H5.86702C5.13369 20.8666 4.53369 20.2666 4.53369 19.5333V11.7999C4.53369 5.46659 9.66703 0.333252 16.0004 0.333252C22.3337 0.333252 27.467 5.46659 27.467 11.7999V19.5999C27.467 20.2666 26.867 20.8666 26.1337 20.8666ZM7.13369 18.2666H24.8004V11.7999C24.8004 6.93325 20.867 2.93325 15.9337 2.93325C11.0004 2.93325 7.06702 6.86659 7.06702 11.7999V18.2666H7.13369Z" fill="black"/>
</symbol><symbol id="sofa-3" viewBox="0 0 34 32">
<path d="M10.2628 31.9999H5.34519C4.56123 31.9999 3.91981 31.3585 3.91981 30.5746V21.4521C1.63919 20.6681 0 18.3875 0 15.8218C0 12.5434 2.56569 9.83521 5.77281 9.83521C8.97993 9.83521 11.5456 12.4722 11.5456 15.8218V30.6458C11.6169 31.4298 10.9755 31.9999 10.2628 31.9999ZM6.77058 29.2204H8.83739V15.8218C8.83739 14.1114 7.48327 12.686 5.84408 12.686C4.20489 12.686 2.85077 14.1114 2.85077 15.8218C2.85077 17.461 3.99108 18.8151 5.48773 18.9577C6.20043 19.0289 6.69931 19.6704 6.69931 20.3118V29.2204H6.77058Z" fill="black"/>
<path d="M28.2937 31.9999H23.4474C22.6634 31.9999 22.022 31.3585 22.022 30.5746V15.8218C22.022 12.5434 24.5877 9.83521 27.7948 9.83521C31.0019 9.83521 33.5676 12.4722 33.5676 15.8218C33.5676 18.3875 31.9284 20.6681 29.6478 21.4521V30.6458C29.6478 31.4298 29.0776 31.9999 28.2937 31.9999ZM24.8015 29.2204H26.8683V20.3831C26.8683 19.6704 27.3672 19.1002 28.0799 19.0289C29.5765 18.8864 30.7168 17.5323 30.7168 15.8931C30.7168 14.1826 29.3627 12.7572 27.7235 12.7572C26.0843 12.7572 24.7302 14.1826 24.7302 15.8931V29.2204H24.8015Z" fill="black"/>
<path d="M23.3763 31.9999H10.2628C9.47883 31.9999 8.8374 31.3585 8.8374 30.5745V19.8841C8.8374 19.1002 9.47883 18.4587 10.2628 18.4587H23.4476C24.2316 18.4587 24.873 19.1002 24.873 19.8841V30.5745C24.8017 31.4297 24.1603 31.9999 23.3763 31.9999ZM11.6169 29.2204H22.0222V21.3808H11.6169V29.2204Z" fill="black"/>
<path d="M23.3763 21.3808H10.2628C9.47883 21.3808 8.8374 20.7394 8.8374 19.9554V7.69708C8.8374 3.49219 12.2583 0 16.5345 0H17.1759C21.3808 0 24.873 3.42092 24.873 7.69708V19.9554C24.8017 20.7394 24.1603 21.3808 23.3763 21.3808ZM11.6169 18.53H22.0222V7.69708C22.0222 4.98885 19.8129 2.85077 17.1759 2.85077H16.5345C13.8263 2.85077 11.6882 5.06012 11.6882 7.69708V18.53H11.6169Z" fill="black"/>
</symbol><symbol id="sofa" viewBox="0 0 32 32">
<path d="M6.00016 31.6666H4.1335C2.00016 31.6666 0.333496 29.9333 0.333496 27.8666V13.1999C0.333496 11.0666 2.00016 9.33325 4.1335 9.33325H6.00016C8.1335 9.33325 9.80016 11.0666 9.80016 13.1333V27.7999C9.80016 29.9999 8.06683 31.6666 6.00016 31.6666ZM4.1335 11.9999C3.46683 11.9999 2.9335 12.5333 2.9335 13.1999V27.8666C2.9335 28.5333 3.46683 29.0666 4.1335 29.0666H6.00016C6.66683 29.0666 7.20016 28.5333 7.20016 27.8666V13.1999C7.20016 12.5333 6.66683 11.9999 6.00016 11.9999H4.1335Z" fill="black"/>
<path d="M27.8669 31.6666H26.0002C23.8669 31.6666 22.2002 29.9332 22.2002 27.8666V13.1999C22.2002 11.0666 23.9335 9.3999 26.0002 9.3999H27.8669C30.0002 9.3999 31.6669 11.1332 31.6669 13.1999V27.8666C31.6669 29.9999 30.0002 31.6666 27.8669 31.6666ZM26.0002 11.9999C25.3335 11.9999 24.8002 12.5332 24.8002 13.1999V27.8666C24.8002 28.5332 25.3335 29.0666 26.0002 29.0666H27.8669C28.5335 29.0666 29.0669 28.5332 29.0669 27.8666V13.1999C29.0669 12.5332 28.5335 11.9999 27.8669 11.9999H26.0002Z" fill="black"/>
<path d="M23.4669 28.0665H8.53353C7.8002 28.0665 7.2002 27.4665 7.2002 26.7331V21.1998C7.2002 20.4665 7.8002 19.8665 8.53353 19.8665H23.5335C24.2669 19.8665 24.8669 20.4665 24.8669 21.1998V26.7331C24.8002 27.4665 24.2002 28.0665 23.4669 28.0665ZM9.8002 25.4665H22.2002V22.5331H9.8002V25.4665Z" fill="black"/>
<path d="M23.4669 22.5334H8.53353C7.8002 22.5334 7.2002 21.9334 7.2002 21.2C7.2002 20.4667 7.8002 19.8667 8.53353 19.8667H23.5335C24.2669 19.8667 24.8669 20.4667 24.8669 21.2C24.8002 21.9334 24.2002 22.5334 23.4669 22.5334Z" fill="black"/>
<path d="M26.9337 11.8666C26.2003 11.8666 25.6003 11.2666 25.6003 10.5333V5.6666C25.6003 4.0666 24.7337 2.93327 24.0003 2.93327H8.93366C8.20033 2.93327 7.33366 4.13327 7.33366 5.6666V10.3999C7.33366 11.1333 6.73366 11.7333 6.00033 11.7333C5.26699 11.7333 4.66699 11.1333 4.66699 10.3999V5.6666C4.66699 2.6666 6.53366 0.266602 8.86699 0.266602H24.0003C26.3337 0.266602 28.2003 2.59994 28.2003 5.6666V10.5333C28.267 11.2666 27.667 11.8666 26.9337 11.8666Z" fill="black"/>
</symbol><symbol id="sort-arrow" viewBox="0 0 16 16">
<mask id="mask0" mask-type="alpha" maskUnits="userSpaceOnUse" x="2" y="5" width="12" height="7">
<path d="M3.41 5L8 9.32659L12.59 5L14 6.41L8 12L2 6.41L3.41 5Z" fill="white"/>
</mask>
<g mask="url(#mask0)">
<rect width="16" height="16" fill="white"/>
<rect width="16" height="16" fill="black"/>
</g>
</symbol><symbol id="sort-filter" viewBox="0 0 16 16">
<path d="M1 12.9092C1 12.5075 1.32561 12.1819 1.72727 12.1819H5.72727C6.12893 12.1819 6.45455 12.5075 6.45455 12.9092C6.45455 13.3108 6.12893 13.6364 5.72727 13.6364H1.72727C1.32561 13.6364 1 13.3108 1 12.9092Z" fill="#343538"/>
<path d="M1 9.63645C1 9.23479 1.32561 8.90918 1.72727 8.90918H8.63636C9.03803 8.90918 9.36364 9.23479 9.36364 9.63645C9.36364 10.0381 9.03803 10.3637 8.63636 10.3637H1.72727C1.32561 10.3637 1 10.0381 1 9.63645Z" fill="#343538"/>
<path d="M1 6.36375C1 5.96209 1.32561 5.63647 1.72727 5.63647H11.5455C11.9471 5.63647 12.2727 5.96209 12.2727 6.36375C12.2727 6.76541 11.9471 7.09102 11.5455 7.09102H1.72727C1.32561 7.09102 1 6.76541 1 6.36375Z" fill="#343538"/>
<path d="M1 3.0908C1 2.68914 1.32561 2.36353 1.72727 2.36353H14.4545C14.8562 2.36353 15.1818 2.68914 15.1818 3.0908C15.1818 3.49246 14.8562 3.81807 14.4545 3.81807H1.72727C1.32561 3.81807 1 3.49246 1 3.0908Z" fill="#343538"/>
</symbol><symbol id="subscribe-arrow" viewBox="0 0 24 15">
<path fill-rule="evenodd" clip-rule="evenodd" d="M15 1.41C15.9 0.55 16.47 0 16.47 0L24 6.94L16.47 14.01L15 12.59C15 12.59 18.1206 9.63614 19.8608 8H0V6H19.9685C18.2471 4.42735 14.978 1.43202 15 1.41Z"/>
</symbol><symbol id="table" viewBox="0 0 30 30">
<path d="M28.5 2.75H1.5C0.8125 2.75 0.25 2.1875 0.25 1.5C0.25 0.8125 0.8125 0.25 1.5 0.25H28.4375C29.125 0.25 29.6875 0.8125 29.6875 1.5C29.6875 2.1875 29.125 2.75 28.5 2.75Z" fill="black"/>
<path d="M25.1249 29.6874C24.7499 29.6874 24.3749 29.4999 24.1249 29.1874L3.9374 2.2499C3.4999 1.6874 3.6249 0.937399 4.1874 0.562399C4.7499 0.124899 5.4999 0.249899 5.8749 0.812399L26.0624 27.7499C26.4374 28.3124 26.3749 29.0624 25.8124 29.4374C25.6249 29.6249 25.3749 29.6874 25.1249 29.6874Z" fill="black"/>
<path d="M4.87504 29.6873C4.62504 29.6873 4.37504 29.6248 4.12504 29.4373C3.56254 29.0623 3.50004 28.2498 3.87504 27.7498L24.125 0.812292C24.5 0.249792 25.3125 0.187292 25.8125 0.562292C26.375 0.937292 26.4375 1.74979 26.0625 2.24979L5.87504 29.1873C5.62504 29.5623 5.25004 29.6873 4.87504 29.6873Z" fill="black"/>
</symbol><symbol id="textile" viewBox="0 0 32 32">
<path d="M30.6385 28.3913H21.9917C21.2428 28.3913 20.63 27.7786 20.63 27.0296C20.63 26.2807 21.2428 25.6679 21.9917 25.6679H29.3449V6.26369H21.1747C20.4258 6.26369 19.813 5.65092 19.813 4.90199C19.813 4.15305 20.4258 3.54028 21.1747 3.54028H30.6385C31.3875 3.54028 32.0002 4.15305 32.0002 4.90199V27.0977C32.0002 27.8467 31.3875 28.3913 30.6385 28.3913Z" fill="black"/>
<path d="M25.6 13.2766H21.2426C20.4936 13.2766 19.8809 12.6639 19.8809 11.9149C19.8809 11.166 20.4936 10.5532 21.2426 10.5532H25.6C26.3489 10.5532 26.9617 11.166 26.9617 11.9149C26.9617 12.6639 26.3489 13.2766 25.6 13.2766Z" fill="black"/>
<path d="M25.6 21.3787H21.2426C20.4936 21.3787 19.8809 20.7659 19.8809 20.017C19.8809 19.268 20.4936 18.6553 21.2426 18.6553H25.6C26.3489 18.6553 26.9617 19.268 26.9617 20.017C26.9617 20.7659 26.3489 21.3787 25.6 21.3787Z" fill="black"/>
<path d="M21.1064 32H1.3617C0.612766 32 0 31.3872 0 30.6383V1.3617C0 0.612766 0.612766 0 1.3617 0H21.1745C21.9234 0 22.5362 0.612766 22.5362 1.3617V30.7064C22.4681 31.3872 21.8553 32 21.1064 32ZM2.65532 29.3447H19.8128V2.65532H2.65532V29.3447Z" fill="black"/>
<path d="M14.0933 9.32765H8.44227C7.69333 9.32765 7.08057 8.71489 7.08057 7.96595C7.08057 7.21701 7.69333 6.60425 8.44227 6.60425H14.0933C14.8423 6.60425 15.455 7.21701 15.455 7.96595C15.455 8.71489 14.7742 9.32765 14.0933 9.32765Z" fill="black"/>
<path d="M14.0933 17.3618H8.44227C7.69333 17.3618 7.08057 16.7491 7.08057 16.0001C7.08057 15.2512 7.69333 14.6384 8.44227 14.6384H14.0933C14.8423 14.6384 15.455 15.2512 15.455 16.0001C15.455 16.7491 14.7742 17.3618 14.0933 17.3618Z" fill="black"/>
<path d="M14.0933 25.3277H8.44227C7.69333 25.3277 7.08057 24.7149 7.08057 23.966C7.08057 23.217 7.69333 22.6042 8.44227 22.6042H14.0933C14.8423 22.6042 15.455 23.217 15.455 23.966C15.3869 24.7149 14.7742 25.3277 14.0933 25.3277Z" fill="black"/>
</symbol><symbol id="trash" viewBox="0 0 20 20">
<path d="M2.5 5H4.16667H17.5" stroke="#737680" stroke-width="2" stroke-linecap="round" stroke-linejoin="round"/>
<path d="M6.66699 4.99996V3.33329C6.66699 2.89127 6.84259 2.46734 7.15515 2.15478C7.46771 1.84222 7.89163 1.66663 8.33366 1.66663H11.667C12.109 1.66663 12.5329 1.84222 12.8455 2.15478C13.1581 2.46734 13.3337 2.89127 13.3337 3.33329V4.99996M15.8337 4.99996V16.6666C15.8337 17.1087 15.6581 17.5326 15.3455 17.8451C15.0329 18.1577 14.609 18.3333 14.167 18.3333H5.83366C5.39163 18.3333 4.96771 18.1577 4.65515 17.8451C4.34259 17.5326 4.16699 17.1087 4.16699 16.6666V4.99996H15.8337Z" stroke="#737680" stroke-width="2" stroke-linecap="round" stroke-linejoin="round"/>
<path d="M8.33301 9.16663V14.1666" stroke="#737680" stroke-width="2" stroke-linecap="round" stroke-linejoin="round"/>
<path d="M11.667 9.16663V14.1666" stroke="#737680" stroke-width="2" stroke-linecap="round" stroke-linejoin="round"/>
</symbol></svg>