<svg width="30" height="30" fill="none" xmlns="http://www.w3.org/2000/svg"><path d="M28.5 2.75h-27C.812 2.75.25 2.187.25 1.5.25.812.813.25 1.5.25h26.938c.687 0 1.25.563 1.25 1.25 0 .688-.563 1.25-1.188 1.25z" fill="#000"/><path d="M25.125 29.687c-.375 0-.75-.187-1-.5L3.937 2.25C3.5 1.687 3.625.937 4.187.562 4.75.125 5.5.25 5.875.812L26.062 27.75c.375.562.313 1.312-.25 1.687-.187.188-.437.25-.687.25z" fill="#000"/><path d="M4.875 29.687c-.25 0-.5-.062-.75-.25-.562-.375-.625-1.187-.25-1.687L24.125.812C24.5.25 25.313.187 25.813.562c.562.375.625 1.188.25 1.688L5.875 29.187c-.25.375-.625.5-1 .5z" fill="#000"/></svg>