<svg width="32" height="32" fill="none" xmlns="http://www.w3.org/2000/svg"><path d="M30.639 28.391h-8.647a1.366 1.366 0 01-1.362-1.361c0-.75.613-1.362 1.362-1.362h7.353V6.264h-8.17a1.366 1.366 0 01-1.362-1.362c0-.749.613-1.362 1.362-1.362h9.463c.75 0 1.362.613 1.362 1.362v22.196c0 .749-.613 1.293-1.361 1.293z" fill="#000"/><path d="M25.6 13.277h-4.357a1.366 1.366 0 01-1.362-1.362c0-.749.613-1.362 1.362-1.362H25.6c.749 0 1.362.613 1.362 1.362 0 .749-.613 1.362-1.362 1.362zm0 8.102h-4.357a1.366 1.366 0 01-1.362-1.362c0-.749.613-1.362 1.362-1.362H25.6c.749 0 1.362.613 1.362 1.362 0 .749-.613 1.362-1.362 1.362z" fill="#000"/><path d="M21.106 32H1.362A1.366 1.366 0 010 30.638V1.362C0 .612.613 0 1.362 0h19.813c.748 0 1.361.613 1.361 1.362v29.344c-.068.681-.68 1.294-1.43 1.294zm-18.45-2.655h17.157V2.655H2.655v26.69z" fill="#000"/><path d="M14.093 9.328h-5.65A1.366 1.366 0 017.08 7.966c0-.749.612-1.362 1.361-1.362h5.651c.75 0 1.362.613 1.362 1.362 0 .749-.68 1.362-1.362 1.362zm0 8.034h-5.65A1.366 1.366 0 017.08 16c0-.749.612-1.362 1.361-1.362h5.651c.75 0 1.362.613 1.362 1.362 0 .75-.68 1.362-1.362 1.362zm0 7.966h-5.65a1.366 1.366 0 01-1.362-1.362c0-.749.612-1.362 1.361-1.362h5.651c.75 0 1.362.613 1.362 1.362-.068.749-.68 1.362-1.362 1.362z" fill="#000"/></svg>