<svg width="32" height="29" viewBox="0 0 32 29" fill="none" xmlns="http://www.w3.org/2000/svg">
<path d="M32.0002 9.59983C31.9339 12.4983 30.81 15.2726 28.8402 17.3999C26.3793 20.0984 23.7039 22.5932 20.8402 24.8598L17.2002 27.9999C16.8471 28.2789 16.4102 28.4306 15.9602 28.4306C15.5102 28.4306 15.0733 28.2789 14.7202 27.9999C13.4402 26.8599 12.1802 25.7998 11.0802 24.8598C8.21546 22.5944 5.53995 20.0996 3.08019 17.3999C1.1125 15.2695 -0.017135 12.4987 -0.0998068 9.59983C-0.139778 7.08817 0.767 4.65351 2.4402 2.77989C3.25351 1.89503 4.24323 1.19042 5.34557 0.711588C6.44791 0.232759 7.63839 -0.00968404 8.8402 -0.000142782C10.6655 -0.00812186 12.4406 0.597677 13.8802 1.71989C14.645 2.3347 15.3185 3.05522 15.8802 3.85984C16.4382 3.05221 17.1121 2.33119 17.8802 1.71989C19.3091 0.59212 21.0799 -0.0146401 22.9002 -0.000142782C24.1022 -0.0109295 25.293 0.230971 26.3956 0.709879C27.4981 1.18879 28.4877 1.89404 29.3002 2.77989C31.0315 4.62917 31.9965 7.06657 32.0002 9.59983Z" fill="#F18706"/>
</svg>
